<svg id="Laag_1" data-name="Laag 1" xmlns="http://www.w3.org/2000/svg" viewBox="0 0 54.26 62.6"><defs><style>.cls-1{fill:#001158;}</style></defs><path class="cls-1" d="M46,26.42H40.74V29.5H42.2l.06-.07a.9.9,0,0,1-.32-.23.79.79,0,0,0,.51-.16.16.16,0,0,0-.08-.1,6.36,6.36,0,0,1-.92-.8c-.34,0-.38-.17-.38-.17s.3,0,.3-.06-.3-.2-.3-.2.33,0,.33,0a1,1,0,0,0-.17-.27c.14,0,.31.19.31.19s0-.31,0-.31a.56.56,0,0,1,.24.57l.74.53c.21.11.4.17.45-.12a.57.57,0,0,1-.32-.2.63.63,0,0,0,.29-.1c.16-.1,0-.47.2-.51l.83.17a1,1,0,0,1-.08.51s0,.27.15.32-.27.05-.32,0l-.05.11a.59.59,0,0,0,.33.53,3.09,3.09,0,0,1,.78.51.53.53,0,0,0,.42-.1.36.36,0,0,0,0-.32,2.88,2.88,0,0,0-.39-.65l-.14-.18s-.31-.46-.13-.73a.44.44,0,0,1,.54-.17c.18-.19.47-.12.59.19s-.23.41,0,1a.78.78,0,0,1-.61-.92s0,0,0-.06l-.18,0a.23.23,0,0,0-.2.11c-.09.14,0,.41.12.55s.08.11.13.17a2.22,2.22,0,0,1,.42.71.49.49,0,0,1-.08.48.68.68,0,0,1-.48.16,1.59,1.59,0,0,1,.07.2.36.36,0,0,0,.15.19c-.24.2-.15.38,0,.48s.31,0,.31,0c.15.83-1,1.24-1,1.3s.08,0,.13.13a.16.16,0,0,1,0,.23.09.09,0,0,1-.07,0c0-.14-.05-.25-.13-.26s-.22.28-.22.28.06-.32.06-.32-.3.26-.3.26.1-.3.1-.3-.33.19-.33.19c0-.42.33-.44.5-.44.65,0,.45-.69.45-.69a.52.52,0,0,1-.54.15.38.38,0,0,0,.21-.38c-.06-.56-.08-.63,0-.69s-.07,0-.07,0c-.09.28-.64.67-.64.67l.26.11a.46.46,0,0,1-.26.25v1.54H46Zm0,6.46H43.41v.39a3.22,3.22,0,0,1-.1.75,1.94,1.94,0,0,0,.48,0,5.63,5.63,0,0,1,.6,0,1.27,1.27,0,0,1,.26,0c.19,0,.55-.15.62-.29s.07-.07,0-.1,0-.12,0-.12a.82.82,0,0,0-.51.09.62.62,0,0,1-.64.06c-.06-.05-.07-.15,0-.29s0-.19.32-.19c.1,0,.12.13,0,.19s-.21.13-.27.09,0,.11,0,.12a.49.49,0,0,0,.53-.05.88.88,0,0,1,.59-.12.47.47,0,0,1,.13.15s-.07.16-.1.22-.38.26-.57.31a.23.23,0,0,1,.1.12.44.44,0,0,1,0,.15c0,.25.38.12.38.12a2.61,2.61,0,0,1-.14.55c0,.1-.25.05-.34.05s0-.06,0-.09.18,0,.18,0l.07-.33a.59.59,0,0,1-.6-.32,2.88,2.88,0,0,1-.67.68.24.24,0,0,1-.26,0c-.05-.06.07-.07.07-.07.25-.09.63-.63.63-.63s.07-.19-.45.06a1.66,1.66,0,0,1-.79.2l0,.05a2.79,2.79,0,0,1-2.29,1.38v3.09a5.42,5.42,0,0,0,3-1h0A5.35,5.35,0,0,0,46,33.77Zm-1.16,10c0-.36-.39-.72-1-1H37.24c-.66.25-1.05.61-1.05,1a.5.5,0,0,0,0,.12h8.61a.49.49,0,0,0,0-.12m-8.63-6a5.37,5.37,0,0,0,1.39,1.34v3.52h5.75V39.08a5.42,5.42,0,0,1-4.71-.31,5.41,5.41,0,0,0,1.91.37V36.89Zm-1-3.12a5.62,5.62,0,0,0,.08.92H38.2a2.83,2.83,0,0,1-.39-1.42v-.39H35.19Zm-.42-9.41a1.78,1.78,0,0,1,.43,1.48c0,.38,0,.52,0,.56v6.28h2.62V31.23a4.13,4.13,0,0,1-.7.14c-.22.06-.08.42-.08.42-.2,0-.18-.26-.18-.26-.24,0-.2.31-.2.31-.2-.08,0-.3-.08-.32s-.28.16-.28.16a.5.5,0,0,1,.16-.4c-.08-.06-.21,0-.21,0,.12-.35.4-.16.47-.11s.09.09.17,0a3.64,3.64,0,0,1,.56-.34c-.2,0-.32-.23-.32-.23.25,0,.27-.08.32-.15a1.62,1.62,0,0,1,.37-.41v-.4a3.39,3.39,0,0,1-.39-.18,3.25,3.25,0,0,1-.77.66.13.13,0,0,0-.1.14c0,.21-.11.27-.11.27a.18.18,0,0,0-.14-.2h0c-.17,0-.2.24-.2.24-.17-.07,0-.36,0-.36a.68.68,0,0,0-.31.14c-.08-.19.23-.3.23-.3a1,1,0,0,0-.3,0,.32.32,0,0,1,.43-.13.28.28,0,0,1,.09.07c0,.05.07.13.13,0s.58-.6.68-.69c-.07,0-.33,0-.47-.12a.86.86,0,0,0,.51-.16A.16.16,0,0,0,37,29a6.36,6.36,0,0,1-.92-.8c-.34,0-.38-.17-.38-.17s.3,0,.3-.06-.29-.21-.29-.21.33,0,.33,0a1.58,1.58,0,0,0-.18-.27c.15,0,.31.18.31.18s0-.3,0-.3c.3.15.23.56.23.56l.94.66a.48.48,0,0,0,.62-.08.18.18,0,0,0,0-.26.13.13,0,0,0-.09,0s-.15,0-.18,0a.14.14,0,0,1,0-.19A1.69,1.69,0,0,1,38,28c.05,0,.09-.09,0-.12-.28-.12-.39-.15-.39-.2s0-.18,0-.18.16,0,.16,0c.13-.17.21-.17.26-.18a1.5,1.5,0,0,1,.42.09s.1,0,.12,0a.27.27,0,0,1,.37,0c-.08,0-.22.09-.18.12s0,.36-.05.44c-.08.25.17.49.17.49a.36.36,0,0,1-.42,0c0,.44.66.45.66.45-.13.25-.55.19-.64.17s-.08.11,0,.16a2.37,2.37,0,0,1,.61.37h.62a.39.39,0,0,0,0-.28,2.55,2.55,0,0,0-.39-.65l-.13-.18s-.32-.46-.14-.73a.45.45,0,0,1,.54-.17c.18-.2.47-.13.59.19s-.22.41,0,1a.78.78,0,0,1-.6-.92s0,0,0-.07h-.17a.25.25,0,0,0-.21.11c-.08.14,0,.41.13.54l.12.18a2.45,2.45,0,0,1,.43.71.58.58,0,0,1,0,.32h.59V26.42h-5.1l-.07,0c0-.07,0-.19,0-.44,0-1.12-.34-1.48-.61-1.6m-.66-1a.76.76,0,0,1,.66-.21l0,0a.63.63,0,0,0-.88,0,.62.62,0,0,0,0,.88h0l0,0a.75.75,0,0,1,.22-.66m1.1.24a.61.61,0,0,0,0,.88h0s0,0,0,0a.76.76,0,0,1,.63-.87.53.53,0,0,1,.25,0l0,0a.63.63,0,0,0-.88,0m2.17.74a1,1,0,0,1-1.1.85,1.16,1.16,0,0,1-.45-.12,1.11,1.11,0,0,0,.63.24,1.08,1.08,0,0,0,1.13-1h0l-.19-.12a.57.57,0,0,1,0,.18m2,9.2c-.15,0-.28.08-.28.27v.55c0,.38.15.59.5.59s.54-.22.54-.62v-.06a1.36,1.36,0,0,1-.76-.73M38,32.88v.39a2.59,2.59,0,0,0,2.53,2.58V34.36a1.26,1.26,0,0,1-.28,0v0a.69.69,0,0,1-.22.57.91.91,0,0,1-.55.18A1,1,0,0,1,39,35a.59.59,0,0,1-.23-.55v-.6c0-.26-.19-.27-.43-.29v-.11h1a1.09,1.09,0,0,1-.07-.4v-.13Zm2.19-1.69h.34V29.7H39ZM38,30.65v2h1.23v-.51Zm-.08-3.18h0a.09.09,0,0,0,.07.09.08.08,0,0,0,.08-.09v0h.11s0,0,0,0,0,0,0,0h-.26s0,0,0,0,0,0,0,0h0ZM41,32.13h.74v-.74H41Zm-.84,0V33h-.75v0a1.16,1.16,0,0,0,.75,1.08V33H41v1.13a1.16,1.16,0,0,0,.74-1V33H41v-.83Zm0-.74h-.75v.74h.75Zm.8,2.92a1.11,1.11,0,0,1-.25,0v1.49a2.54,2.54,0,0,0,1.2-.36Zm1.9.19a2.51,2.51,0,0,0,.32-1.23v-.39H42V33a1.63,1.63,0,0,1,0,.31Zm.76-4.71-.24,0V30a.6.6,0,0,1,.19-.06c.13,0,0-.11,0-.11m-.18-1.92h0s0,.08.09.09.11,0,.11,0a0,0,0,0,0,0-.05h.12a.05.05,0,0,0,0,0,0,0,0,0,0,0,0H43.5s0,0,0,0m-.13.29a.24.24,0,0,0-.27.16c.39-.16.43.13.43.13s.11-.23-.16-.29m.07-.29s0,0,0,0a0,0,0,0,0,0,0,0,0,0,0,0,0,0l-.25-.11a0,0,0,0,0,0,0h0a.06.06,0,0,0,0,0h0l.1.05,0,0s0,.07.09.09.11,0,.12-.05m-2.68,3.32h.63v-.46c0-.26-.2-.27-.44-.29v-.11h1.23v.11c-.22,0-.46,0-.46.29v.46H42v.64a.62.62,0,0,0,.23,0c.35,0,.53-.22.54-.62a2.22,2.22,0,0,0,0-.37h.2a1.83,1.83,0,0,0,0,.47v-.09a.69.69,0,0,1-.22.57A.84.84,0,0,1,42,32v.69h1.24v-3H40.74Zm4-6a1.12,1.12,0,0,1-.54-.09,1.06,1.06,0,0,0,.73.21,1.26,1.26,0,0,0,1-.66l-.18-.12a1.24,1.24,0,0,1-1,.66m.19-1.6a.61.61,0,0,0,0,.88s0,0,0,0a.78.78,0,0,1,.88-.88l0,0a.62.62,0,0,0-.88,0h0M30.86,8c0-.47,0-1.09-.95-1.09.26,0-.65-.07-.65.38A.69.69,0,0,1,28.6,8h-.07s-1.07-.32-.51-.53a.82.82,0,0,0,.46-1s0,0,0-.06a.81.81,0,0,0-1.1-.25,1.07,1.07,0,0,0-.16.14c-.12.11,0,.46-.27.46s-.27-.27-.27-.43-.09-.48-.58-.48a.53.53,0,0,0-.61.46v0a.41.41,0,0,0,.25.45c.17.1.08.46-.22.25-.1-.06-1.15-1-2.16-.38-.46.3-.44.69-.14.89.12.08.16.21,0,.31a.94.94,0,0,0,.15,1.3.89.89,0,0,0,1.25-.06.83.83,0,0,0,.13-.18,2.21,2.21,0,0,0,.11-1c0-.13.09-.53.66-.42.26,0,.29.22.15.36a2.19,2.19,0,0,0-.86,1.77.93.93,0,0,1-.5.82c-.23.16-.87.55-.3,1.18.32.36.38.46-.34,1.14-.11.11-.4.26.11.31a14.43,14.43,0,0,0,2.08-.12l-.15-.27a8.54,8.54,0,0,1-1.6.05,1.11,1.11,0,0,0,.5-1.48.56.56,0,0,1,0-.08c-.27-.35,0-.64.5-.7a1.79,1.79,0,0,1,1.24.18s-.79-.09-1.09.15v.07s0,.12.06.21a4.29,4.29,0,0,1,.88-.18.1.1,0,0,1,0,.13h0a.1.1,0,0,1-.14,0,.42.42,0,0,1-.22,0l.14.09a.19.19,0,0,1-.13.22.17.17,0,0,1-.22-.13.2.2,0,0,1,0-.15,1.36,1.36,0,0,0-.35.07.19.19,0,0,0,0,.07.76.76,0,0,0,0,.11,1.06,1.06,0,0,1,.12.43.86.86,0,0,0,.06.23c0,.05.05.1.07.16.19.44.48,1.1,1.32.89a.09.09,0,0,1,.11.06h0a.1.1,0,0,1-.06.11l-.16.06a.7.7,0,0,1-.47,0l.06.23-.44.08c0,.06,0,0,0,.08,0,.53.67.95,1.5.95s1.49-.42,1.49-.95a.49.49,0,0,0,0-.12h0l-.14-.21c-.38-.64-.31-.81-.31-.81s0-.09.05-.09a13,13,0,0,0,2-.24c.14,0,.31-.16.15-.26s-1.24-.19-1.23-.85c0-.5.15-1.14-.81-1.44-.08,0-.1-.06-.08-.16a1.57,1.57,0,0,0-.3-.94c-.16-.18-.39-.4-.36-.47L28,8.09a1.57,1.57,0,0,1,.61.56c.14.26.38.48,1.18.48A1.15,1.15,0,0,0,30.86,8m-12,15.63a.63.63,0,0,0-.88,0l0,.05a.76.76,0,0,1,.87.62.53.53,0,0,1,0,.25.1.1,0,0,0,.05,0,.62.62,0,0,0,0-.88h0m.59.74c-.26.12-.64.49-.6,1.61,0,.27,0,.38,0,.46H8.28v7.35a5.4,5.4,0,0,0,7.36,5,5.4,5.4,0,0,1-4.69.32v2.66h5.46V38.4a5.35,5.35,0,0,0,2.66-4.63V26.42h0a5.61,5.61,0,0,0,0-.58,1.84,1.84,0,0,1,.42-1.49m-.13-1.22,0,0a.76.76,0,0,1,.88.62.53.53,0,0,1,0,.25l0,0a.63.63,0,0,0,0-.89.62.62,0,0,0-.88,0M17.84,42.91a.93.93,0,0,0-.55-.73,4.59,4.59,0,0,0-.5-.24H10.26a3.85,3.85,0,0,0-.5.24.94.94,0,0,0-.55.73.25.25,0,0,0,0,.12h8.61a.49.49,0,0,0,0-.12M8.21,24.66a1.24,1.24,0,0,0,1,.66,1,1,0,0,0,.72-.22,1.11,1.11,0,0,1-.54.1,1.24,1.24,0,0,1-1-.66ZM7.84,24A.63.63,0,0,0,7,23.11l0,.05a.76.76,0,0,1,.66.21.74.74,0,0,1,.21.66l0,0m.49-.4s0,0,0,0a.77.77,0,0,1,.88.63,1,1,0,0,1,0,.25.1.1,0,0,1,.05,0,.63.63,0,0,0,0-.88h0a.62.62,0,0,0-.89,0m8.18.69a1.09,1.09,0,0,0,1.12,1h0a1.19,1.19,0,0,0,.63-.24,1.11,1.11,0,0,1-.44.12,1,1,0,0,1-1.1-.85,1.16,1.16,0,0,1,0-.18Zm26.86-10.4A28.9,28.9,0,0,1,49,31.3a30.24,30.24,0,0,1-1.88,10.57c0,.11-.09.22-.13.32H44.62a1,1,0,0,1,.41.72c0,.52-.35.52-1,.52h-7c-.43,0-.77,0-1-.18a.45.45,0,0,1-.13-.35,1,1,0,0,1,.41-.73H32a6,6,0,0,0,.79-1.7c.91-3.09.83-6.48.87-9.21,0-1.62,0-1.48,0-3,0,0,.31-.12.11-.73a1.44,1.44,0,0,0-.59-.78.44.44,0,0,0-.14-.39l-.2-.18a.64.64,0,0,0,0-.09,2.62,2.62,0,0,1-.14-.73A11.69,11.69,0,0,0,32,22.6a.73.73,0,0,0,.36,0c.43-.07.35-.59.12-.88-.11-.14-.41-.58-.56-.81a10.06,10.06,0,0,1-.45-1.12,15.43,15.43,0,0,1,0-2c.18-3.16-1.28-3.36-1.78-3.6a1.5,1.5,0,0,1-.48-.3c0,.58-.88,1-1.77,1s-1.78-.36-1.78-1c0,0,0-.08.08-.18l-.44.06c-.55.13-.68.08-.89.16A1.48,1.48,0,0,0,23.49,15c-.28.65-.54,1.39-.54,1.39-.07.16-.16.45-.16.45l-.27-.33c-.18-.22-1.27-1.2-1.46-1.39s-.78.14-.78.14A13.65,13.65,0,0,1,22.93,18c.08.17,0,.11-.09.05a7.86,7.86,0,0,0-3.53-.46l-.45.63c2.09-.21,3.7,0,4.1.59a.48.48,0,0,0,.49.18.35.35,0,0,0,.28-.36.59.59,0,0,1,.07-.29,7.36,7.36,0,0,1,3.67-3l1.06,3.29a4,4,0,0,1,.77.14c-.08-.19-.51-.57-.38-.79,0-.06.5,0,.72-.14s.64-.51.28-1.46c-.07-.17-.16-.38-.18-.46l.18-.06.17.45c.51,1.25-.07,1.6-.32,1.83a.43.43,0,0,0-.11.12.6.6,0,0,0,.06.63c.22.08.22.16.22.16v.7a11.88,11.88,0,0,0-2.78-.4c.11,0,.45-.18.33-.3s-.34,0-.5,0-.12-.08,0-.13a1.3,1.3,0,0,0,.26-.14,1.35,1.35,0,0,0,.57-.61c.05-.14-.13-.16-.13-.16s-.1-.2-.26-.13a5.73,5.73,0,0,1-.81.33c-.1,0-.17-.09-.11-.15a3.47,3.47,0,0,0,.51-.65c.23-.33-.11-.32-.22-.2a6,6,0,0,1-1.21.93c-.16.08-.22.05-.2-.08a1,1,0,0,0,0-.49c0-.15-.32-.29-.32-.1a.84.84,0,0,1-.19.61c-.22.3-.12.68-.23.75a2.29,2.29,0,0,1-2,.5,1.07,1.07,0,0,0-1.37-.23c-1.1,1-.63,3.26-.56,3.43.49,1.26,1.26.6,1.4.46a4.9,4.9,0,0,0,1.18-2.09,3.59,3.59,0,0,0,1.15-.55,4,4,0,0,1,1-.59c.23,0,.59-.17.72-.13v.15a9.69,9.69,0,0,0-1.49,1c-.11.65-1.72,2.83-1.1,3.27.27.19.1.56,0,1a38.87,38.87,0,0,0-.63,4s-.19.7.14.91a4.33,4.33,0,0,0,1.75.18c.19,0,.55.19.71.18,0,0-.06,1.13-.23,1.11S25,30.7,25,30.78s-.15-.11-.22-.09a4.78,4.78,0,0,1-1.31-.05.31.31,0,0,0-.32.21,10.85,10.85,0,0,0-.09,1.4c0,.35-.08.6-.12,1,0,.19,0,1.57-.06,2.16-.08,1.19-.22,4.32-.25,5.38-2.08,0-4.1-.23-3.32-1l.43-.38c.6-.54.63,0,1.27-1a10.1,10.1,0,0,0,1-3c.2-.69-.06-1-.57,0a6.66,6.66,0,0,1-.49.91,2,2,0,0,1-.7.63c-.61.24-1.05-.87-.21-1.84.31-.37.68-.29.72-.09a.16.16,0,0,0,.2.1.18.18,0,0,0,.1-.09c.1-.17.2-.34.29-.52a8.61,8.61,0,0,0,1.19-3.62c0-.18,0-.33,0-.46,0-.8-.5-1.08-.69-.54s-.52.33-.41-.25A27.68,27.68,0,0,1,23,24.9c.09-.27-.12-.33-.19-.39s-.17-.12-.12-.35a14.57,14.57,0,0,1,1.22-2.91c.15-.22-.05-.33-.21-.07-2.2,3.41-3.11,9.14-3.1,9.51,0,1.49.92.71.92.71a5,5,0,0,1-1.06,2c-1.93,2.83-1.14,4.13-1.14,4.13.31.57.84,1.06-.34,2-.38.3-1.61,1.18-.24,2.11.42.29.73.47.94.59h-2a1,1,0,0,1,.41.73c0,.52-.35.52-1,.52h-7c-.43,0-.77,0-.95-.17A.44.44,0,0,1,9,42.91a1,1,0,0,1,.4-.73H7.3l-.12-.32A30,30,0,0,1,5.3,31.3a28.82,28.82,0,0,1,5.61-17.41l0-.05V23a.62.62,0,0,0-.72.11l0,.05a.76.76,0,0,1,.87.62.91.91,0,0,1,0,.23L11,24.1v.25A1.35,1.35,0,0,0,12.2,25a1.19,1.19,0,0,0,1.19-1.16.28.28,0,0,0-.2-.15A.62.62,0,0,1,12,23.38a.62.62,0,0,1,1.22.14c.08,0,.26,0,.29-.36a.63.63,0,1,1,.2,0c0,.35.21.37.29.36a.6.6,0,1,1,0,.21.33.33,0,0,0-.2.15A1.2,1.2,0,0,0,15,25a1.34,1.34,0,0,0,1.34-.9.61.61,0,0,1-.41-.58.59.59,0,0,1,.15-.4.76.76,0,0,1,.86.63A1,1,0,0,1,17,24L17,24a.63.63,0,0,0,0-.88.63.63,0,0,0-.6-.17v-10S15.55,5.49,26.9,5.34c10.83-.07,10.69,7.58,10.69,7.58v10a.61.61,0,0,0-.69.54.63.63,0,0,0,.18.52l.05,0a.74.74,0,0,1,.21-.66.76.76,0,0,1,.66-.21.59.59,0,0,1,.15.4.63.63,0,0,1-.4.59,1.32,1.32,0,0,0,1.34.9,1.19,1.19,0,0,0,1.19-1.16.36.36,0,0,0-.2-.16.62.62,0,1,1-1.2-.33.63.63,0,0,1,.77-.44.62.62,0,0,1,.45.57c.09,0,.27,0,.3-.36a.62.62,0,1,1,.2,0c0,.36.21.37.29.36a.62.62,0,1,1,1.24.07.62.62,0,0,1-1.22.13.39.39,0,0,0-.2.16A1.2,1.2,0,0,0,41.9,25a1.34,1.34,0,0,0,1.35-.9.62.62,0,0,1-.19-.12.76.76,0,0,1,.21-.66.78.78,0,0,1,.67-.21l0-.05a.66.66,0,0,0-.57-.17V13.84l0,.05m3.15,9.47a.76.76,0,0,1,.66-.21l0,0a.63.63,0,0,0-.88,0,.61.61,0,0,0,0,.88h0l0,0a.75.75,0,0,1,.22-.66M19.06,26.42h0m7.36,33.69a.71.71,0,0,0,1.42,0,.71.71,0,1,0-1.42,0m5-1.08a6.61,6.61,0,0,0-.28-.74,1.54,1.54,0,0,0-.87-.1c-.7.12-1.14.55-1.05,1.11s.53.69,1,.77l.17,0c.27,0,.47.16.52.4a.44.44,0,0,1-.37.49h0a.75.75,0,0,1-.77-.53l-.2.06c.1.31.16.53.22.7a3.26,3.26,0,0,0,.7,0c.74-.12,1.07-.57,1-1.09s-.51-.59-.91-.68l-.18,0c-.35-.08-.53-.25-.57-.5a.46.46,0,0,1,.39-.51h0a1.09,1.09,0,0,1,1,.65Zm2.3.65c.15.45.12.48-.25.64l.06.17,1.48-.5L35,59.82c-.39.1-.43.09-.58-.36L34,58.07c-.16-.44-.13-.49.25-.64l-.06-.17-1.49.5.06.17c.39-.11.44-.09.59.36Zm3.72-1-.23.12c-.21.11-.36.17-.48.13s-.2-.1-.37-.32l-.16.11c.14.21.36.55.47.75l.09-.05c0-.11,0-.14.18-.22l1.78-1a.28.28,0,0,1,.3,0l.09-.05c-.1-.2-.22-.5-.38-.82l-.16.09a.89.89,0,0,1,.05.46c0,.1-.11.21-.45.39l-.13.07-.92-1.72c-.23-.41-.21-.46.16-.69l-.08-.16-1.46.78.09.16c.41-.19.46-.18.68.23ZM39.6,54.4l-.09.08c-.13.13-.13.18.13.34L40,55l.71-.54c0-.07-.1-.28-.16-.47s-.14-.2-.3-.11l-.12.08L40,53.85l.93-.72.11.15c-.2.19-.28.27-.16.72l.62,2.37-.16.19-2.24-1.28a.51.51,0,0,0-.68,0l-.11-.15,1.16-.9Zm1.2.32-.57.45.85.51v0ZM44,53.85,43.8,54c-.17.17-.3.27-.42.27a.83.83,0,0,1-.45-.19l-.12.15c.2.16.52.41.68.57l.07-.08a.24.24,0,0,1,.1-.25l1.4-1.46c.1-.11.15-.14.27-.12l.07-.08c-.16-.16-.37-.4-.61-.66l-.13.13a.94.94,0,0,1,.19.42c0,.1,0,.24-.3.51l-.11.11L43,52c-.35-.33-.34-.38-.06-.71l-.13-.12L41.7,52.37l.13.13c.33-.31.38-.32.73,0Zm1.6-5c-.39-.27-.44-.26-.69.06l-.15-.11.89-1.26.15.1c-.22.35-.21.4.18.67l1.2.84c.39.28.44.26.68,0l.15.11-.93,1.32a1.42,1.42,0,0,1-.54.52.71.71,0,0,1-.69-.09.76.76,0,0,1-.24-.93l-.77,0a2.19,2.19,0,0,0-.57,0,1,1,0,0,0-.34.16l-.13-.12.15-.21c.34-.47.57-.52.87-.53s.62,0,.83,0,.21,0,.32-.17l.06-.09Zm.6.41-.12.17a.88.88,0,0,0-.17.4.61.61,0,0,0,.29.52.58.58,0,0,0,.8-.09l.05-.07c.15-.21.15-.23,0-.33Zm1.71-4.43c-.44-.21-.45-.25-.27-.66l-.17-.08-1.13,2.25c.09.09.49.4.63.5l.1-.16a1.28,1.28,0,0,1-.29-.4.74.74,0,0,1,.12-.54.92.92,0,0,1,.26-.38c.08-.06.23,0,.45.09l.58.28-.2.38c-.16.34-.19.35-.51.24l-.08.17.86.43.09-.17c-.27-.19-.29-.21-.12-.55l.19-.38.78.39c.15.07.14.08.06.24l-.11.22c-.14.28-.25.38-.33.4a.76.76,0,0,1-.47,0l-.07.18.71.29L50,45.41l-.17-.08c-.19.34-.24.36-.66.15Zm2.94-3.56c.45.15.49.12.63-.23l.18.06-.53,1.54c-.18.54-.49.85-.94.7a.74.74,0,0,1-.4-.8h0a.8.8,0,0,1-1,.52c-.65-.22-.55-1-.36-1.53l.47-1.38.17.06c-.11.39-.09.44.36.59Zm-.92.38-.68-.23c-.41-.13-.52,0-.6.22a.55.55,0,0,0,.32.7l.05,0c.44.14.72-.13.85-.51Zm.21.07-.08.23a.51.51,0,0,0,.23.68.5.5,0,0,0,.68-.23.36.36,0,0,0,0-.11c.08-.24.07-.25-.07-.3Zm1.34-2.91c.47.1.49.14.43.54l.18,0,.33-1.53-.18,0c-.11.39-.15.43-.62.32l-1.43-.3c-.47-.1-.49-.14-.43-.54l-.18,0-.33,1.53.18,0c.11-.39.15-.42.62-.32ZM49.77,36l.83.25,0-.19a1.5,1.5,0,0,1-.48-.3.64.64,0,0,1-.08-.52.76.76,0,0,1,.11-.38c.06-.08.19-.1.45-.07l1.44.15c.48.05.5.09.48.53l.18,0,.17-1.59h-.18c-.07.39-.1.43-.58.38l-1.45-.16c-.48,0-.51-.08-.49-.53l-.18,0Zm1.88-3.3a.71.71,0,1,0-.71-.72.72.72,0,0,0,.71.72h0M50.2,29.28l0,.12c0,.18.08.21.35.08L51,29.3l-.06-.89-.48-.12c-.2,0-.25,0-.26.18v.15H50l-.08-1.17h.18c.05.27.07.38.51.54l2.33.81L53,29l-2.33,1.14a.5.5,0,0,0-.35.57h-.19L50,29.29Zm.95-.81.05.72.89-.42h0Zm-1.5-2.15c1,.22,2.26.58,2.37.62.44.15.53.2.61.52l.18,0-.18-1.18-.18,0v.12c0,.23-.06.26-.3.21s-1.28-.25-1.61-.34l1.44-.9c.19-.12.26-.13.31.05l0,.16.18,0-.23-1.47-.18,0a.5.5,0,0,1-.3.58l-2.18,1.38Zm-.35-2.87,0,.11c.07.17.12.19.36,0l.34-.25-.22-.86-.49,0c-.21,0-.25,0-.22.22l0,.15-.17,0-.3-1.13.18,0c.1.26.14.37.6.44l2.44.36.11.23-2.08,1.54a.5.5,0,0,0-.24.63l-.18,0-.37-1.42Zm.78-1,.18.7.8-.58h0Zm.68-2.77.08.24a.65.65,0,0,1,.07.49c0,.09-.13.18-.37.32l.08.17c.23-.11.6-.28.82-.36l0-.1c-.1,0-.14,0-.19-.2l-.7-1.88c-.06-.15-.07-.2,0-.3l0-.1-.86.26.06.17a1,1,0,0,1,.46,0c.1,0,.2.14.34.5l.05.14-1.84.68c-.44.17-.49.14-.66-.26l-.17.07.57,1.53.17-.06c-.13-.43-.11-.48.33-.64Zm-3.61-2.13.07.11c.1.15.16.16.36-.06l.28-.31-.4-.8-.49.07c-.2,0-.23.09-.16.26l0,.14-.16.09L46.18,16l.16-.08c.15.23.21.33.68.3l2.46-.13.15.19-1.71,1.93a.51.51,0,0,0-.11.67l-.16.08L47,17.67Zm.57-1.1.32.65.67-.73v0Zm-1.26-4c.4-.26.4-.31.21-.64l.15-.1.9,1.35c.32.48.37.91,0,1.18a.74.74,0,0,1-.87-.18h0a.8.8,0,0,1-.18,1.09c-.57.37-1.11-.16-1.43-.65l-.81-1.22.15-.1c.25.33.29.34.69.08Zm-.26,1-.6.39c-.36.24-.33.4-.19.61a.54.54,0,0,0,.74.17l.05,0a.64.64,0,0,0,.19-.88l-.08-.09Zm.18-.13.14.21a.5.5,0,0,0,.67.24l.09,0a.51.51,0,0,0,.12-.7l0,0c-.14-.21-.16-.21-.29-.13ZM45.2,11.8a.72.72,0,0,0,.11-1,.74.74,0,0,0-1-.09.71.71,0,0,0-.12,1,.7.7,0,0,0,1,.11l0,0m-1.85-4a1.47,1.47,0,0,1,.25,2.08l-.08.1a1.54,1.54,0,0,1-2.17.12.3.3,0,0,1-.08-.08A1.48,1.48,0,0,1,41,7.89l.06-.07a1.57,1.57,0,0,1,2.22-.11l.05,0m-1.61.47c-.54.58-.68,1.24-.28,1.61s.81.31,1.4-.32.72-1.23.29-1.63-.89-.21-1.41.34M40.32,6.92a6.6,6.6,0,0,1,.5-.68c.11-.11.26-.1.49,0l.1-.15-1.07-.71-.1.15c.26.18.34.32.28.46a6.52,6.52,0,0,1-.43.72l-.38.56h0l-.39-2.57-.84-.55-.1.15c.35.27.38.4.1.83L38,5.85a5.49,5.49,0,0,1-.49.67c-.11.12-.26.11-.49,0l-.11.15L38,7.34l.11-.15c-.27-.19-.35-.33-.28-.47A6.38,6.38,0,0,1,38.25,6l.48-.72h0l.4,2.84.25.18ZM34.54,2.41l-.08.17c.38.18.39.23.2.67l-.39.89a1.24,1.24,0,0,0-.08,1.08,1.44,1.44,0,0,0,.73.58,1.3,1.3,0,0,0,1,.06A1.45,1.45,0,0,0,36.65,5l.13-.31A4.89,4.89,0,0,1,37.15,4c.08-.13.24-.14.47,0l.07-.17-1.16-.5-.08.17c.27.13.38.24.34.39a3.27,3.27,0,0,1-.27.76l-.12.27c-.27.63-.66,1-1.18.76s-.53-.7-.25-1.35l.32-.74c.19-.44.24-.46.61-.33L36,3Zm-2.6-.67a2,2,0,0,1,1.22.67,1.27,1.27,0,0,1,.19,1c-.24,1.07-1.2,1.34-2.22,1.11l-1.37-.31,0-.17c.41.06.46,0,.56-.42l.32-1.43c.11-.46.07-.5-.29-.6l0-.18Zm-.91,2c-.08.35-.06.47.25.53.68.16,1.15-.23,1.31-1s-.13-1.26-.79-1.41c-.2,0-.28-.05-.32,0a.39.39,0,0,0-.08.22Zm-2.1-1.65c0-.41-.05-.67-.06-.82a3.76,3.76,0,0,0-.94-.15A1.66,1.66,0,0,0,26,2.55s0,.08,0,.12c0,.9.7,1.51,1.8,1.53A4.57,4.57,0,0,0,28.93,4a1.35,1.35,0,0,1,0-.4V3.33c0-.32,0-.33.29-.36V2.79l-1.5,0v.18c.53,0,.55.07.54.37v.38c0,.25-.2.28-.34.28-.77,0-1.08-.69-1.07-1.37,0-.84.49-1.22,1-1.21a.85.85,0,0,1,.9.75ZM21.8,1.8l0,.18c.42,0,.45,0,.53.46l.17,1a1.2,1.2,0,0,0,.51.95,1.53,1.53,0,0,0,.92.1A1.32,1.32,0,0,0,24.84,4,1.51,1.51,0,0,0,25,2.85l-.06-.33a5.56,5.56,0,0,1-.08-.8c0-.16.13-.26.37-.3l0-.18-1.25.21,0,.18c.29,0,.45,0,.5.15a5.19,5.19,0,0,1,.18.78l.05.29c.11.67,0,1.18-.58,1.27s-.83-.3-.95-1L23,2.32c-.08-.47-.05-.51.34-.6l0-.18Zm.14,3c0-.18-.08-.63-.11-.86l-.2,0a1.33,1.33,0,0,1-.07.56c0,.12-.2.21-.44.29a.73.73,0,0,1-.39.06c-.1,0-.17-.13-.26-.37L20,3.13c-.15-.45-.12-.49.28-.65l-.06-.17-1.51.51.06.18c.39-.11.43-.1.59.35l.47,1.38c.16.45.14.5-.27.66l.06.17Zm-4-.15a.71.71,0,0,0-1.25.67.69.69,0,0,0,.95.29.71.71,0,0,0,.3-1h0M15.63,7.55l.09-.08c.14-.12.14-.17-.11-.34l-.35-.23-.73.51c0,.07.07.28.13.47s.13.21.29.12l.13-.07.11.15-1,.67-.1-.15c.2-.19.29-.26.19-.72l-.5-2.4L14,5.3l2.18,1.4a.51.51,0,0,0,.68,0l.1.15-1.21.84Zm-1.19-.39.6-.41-.82-.55h0Zm-2.37.63c-.33-.36-.32-.4,0-.69L11.91,7,10.75,8l.12.14c.32-.26.37-.26.69.09l1,1.09c.32.35.31.4,0,.69l.12.13,1.17-1L13.74,9c-.32.25-.37.25-.69-.1ZM9.19,9.63l.91,1.88-2-.53-.7.83.14.12c.31-.33.34-.35.73,0l.7.66a5.21,5.21,0,0,1,.52.53c.1.14.1.26-.06.47l.14.11.78-.93-.14-.12c-.22.23-.35.29-.48.19A5.46,5.46,0,0,1,9,12.34l-.72-.65h0l2.29.66.11-.13L9.61,9.9h0L11,11c.35.28.35.31.08.67l.14.12,1-1.23-.14-.12c-.32.33-.34.33-.69.06l-1.22-1c-.35-.27-.35-.3-.07-.66L10,8.72ZM7.46,15.75c.41.25.42.29.22.68l.16.1,1.3-2.16c-.08-.09-.45-.43-.58-.55L8.44,14a1,1,0,0,1,.26.42.73.73,0,0,1-.16.53,1.12,1.12,0,0,1-.29.36c-.08.05-.23,0-.44-.13l-.55-.33.22-.36c.19-.32.22-.33.53-.2l.09-.16-.82-.5-.1.16c.25.21.27.24.07.56L7,14.7l-.74-.45c-.14-.08-.14-.09,0-.25l.12-.21c.17-.26.28-.36.36-.38a.81.81,0,0,1,.46.08l.09-.16L6.6,13,5.38,15l.15.1c.23-.33.27-.34.68-.09Zm0,0c.41.25.42.29.22.68l.16.1,1.3-2.16c-.08-.09-.45-.43-.58-.55L8.44,14a1,1,0,0,1,.26.42.73.73,0,0,1-.16.53,1.12,1.12,0,0,1-.29.36c-.08.05-.23,0-.44-.13l-.55-.33.22-.36c.19-.32.22-.33.53-.2l.09-.16-.82-.5-.1.16c.25.21.27.24.07.56L7,14.7l-.74-.45c-.14-.08-.14-.09,0-.25l.12-.21c.17-.26.28-.36.36-.38a.81.81,0,0,1,.46.08l.09-.16L6.6,13,5.38,15l.15.1c.23-.33.27-.34.68-.09Zm-3.23,1.6a2,2,0,0,1,.9-1.06,1.29,1.29,0,0,1,1,0c1,.46,1.08,1.44.64,2.39L6.22,20l-.17-.07c.15-.39.14-.44-.29-.63l-1.35-.6c-.43-.2-.47-.18-.65.15l-.17-.07ZM6,18.65c.34.15.45.14.58-.14.29-.63,0-1.16-.69-1.47a1,1,0,0,0-1.54.49c-.08.19-.1.26-.09.3a.62.62,0,0,0,.19.13Zm-.6,3.15,0-.13c0-.18,0-.22-.3-.2l-.42,0-.26.85.41.28c.16.11.23.09.3-.08l0-.14.18.06L5.07,23.6l-.17-.05c0-.27.07-.39-.29-.69L2.73,21.28l0-.24,2.58-.24a.51.51,0,0,0,.54-.41l.17.05-.43,1.41Zm-1.17.42.21-.7-1,.08v0ZM3,23.7a8,8,0,0,1-.8-.06,3.46,3.46,0,0,0-.3.89,1.65,1.65,0,0,0,1.1,2l.12,0a1.52,1.52,0,0,0,1.75-1.24,1.23,1.23,0,0,0,0-.19,4.57,4.57,0,0,0,0-1,8.17,8.17,0,0,0-.79-.38l0,.18c.45.33.66.62.58,1-.11.61-.7.95-1.52.8s-1.15-.58-1-1.23a.83.83,0,0,1,.86-.72Zm1.15,4.93V28.5c0-.18-.05-.21-.34-.13l-.4.13-.07.88.46.19c.19.07.24,0,.28-.14l0-.15.18,0-.09,1.17-.18,0c0-.27,0-.39-.43-.6L1.35,28.71l0-.24,2.46-.79c.37-.12.4-.25.44-.52H4.4l-.11,1.47Zm-1.05.66.06-.72-1,.28v0Zm-.47,2a.71.71,0,1,0,.74.7.73.73,0,0,0-.74-.7h0m-1.11,3.9,2,.6L1.72,36.93,1.86,38,2,38c0-.45,0-.49.52-.52l1-.07a6.15,6.15,0,0,1,.74,0c.18,0,.26.1.31.36l.18,0L4.59,36.5l-.18,0c0,.31,0,.44-.19.48a8,8,0,0,1-.82.11l-1,.09h0l2-1.24,0-.17L2,35.06v0l1.71-.26c.44-.06.46,0,.55.4l.17,0-.21-1.59L4,33.6c0,.45,0,.46-.42.54l-1.54.24c-.43.07-.46,0-.54-.4l-.18,0Zm1.61,7.37.18,0c-.09-.41-.07-.45.39-.58l1-.27c.5-.15.78-.35.89-.62a1.45,1.45,0,0,0,0-.92,1.33,1.33,0,0,0-.58-.81,1.48,1.48,0,0,0-1.13,0l-.33.1a4.28,4.28,0,0,1-.79.17c-.16,0-.27-.09-.34-.32l-.18.05.35,1.21.18,0c-.07-.29,0-.45.1-.52a3.78,3.78,0,0,1,.76-.26l.28-.09c.66-.19,1.18-.11,1.33.43s-.2.86-.88,1l-.78.23c-.47.13-.51.1-.64-.27l-.18,0Zm1.26,1.21c-.45.18-.48.15-.66-.21l-.17.07.59,1.45L4.28,45c-.13-.38-.12-.43.33-.61L6,43.83c.44-.17.48-.15.66.21L6.8,44l-.6-1.44L6,42.6c.13.38.12.43-.32.61ZM5.5,47.81a1.92,1.92,0,0,1-.31-1.36,1.21,1.21,0,0,1,.62-.79c1-.54,1.8,0,2.31.91l.68,1.22-.16.09c-.22-.35-.27-.37-.68-.14l-1.29.71c-.42.23-.42.28-.26.62l-.16.08Zm2.13-.67c.32-.18.39-.28.24-.55a1.06,1.06,0,0,0-1.43-.43.62.62,0,0,0-.17.11c-.73.4-.86.92-.53,1.51.1.19.15.25.19.26A.45.45,0,0,0,6.15,48Zm.26,3.1c-.39.28-.43.27-.69,0l-.15.11L8,51.56l.15-.1c-.22-.34-.22-.39.17-.67l1.18-.86c.38-.29.43-.27.69,0l.15-.11L9.39,48.6l-.15.11c.22.34.22.39-.16.67Zm3.76,2.56c.19-.26.42-.56.47-.65a1.58,1.58,0,0,0-.4-.78c-.48-.52-1.08-.65-1.5-.27a1,1,0,0,0-.1,1.27l.07.16a.53.53,0,0,1,0,.64.43.43,0,0,1-.61,0h0a.75.75,0,0,1,0-.93l-.15-.13-.48.56a3.25,3.25,0,0,0,.37.59c.51.55,1.07.58,1.46.23s.22-.75.07-1.12l-.07-.18a.64.64,0,0,1,.11-.75.45.45,0,0,1,.64.06v0a1.06,1.06,0,0,1,0,1.18Zm2.57,2c.31-.37.35-.37.71-.11L15,54.5,13.1,52.89c-.11.07-.5.39-.64.5l.14.14a1.13,1.13,0,0,1,.45-.2.75.75,0,0,1,.51.24,1,1,0,0,1,.31.33c0,.1,0,.23-.19.42l-.41.5-.33-.27c-.29-.24-.29-.27-.11-.55l-.15-.12-.62.74.15.12c.25-.22.28-.24.57,0l.33.28-.56.67c-.1.12-.11.12-.25,0l-.19-.16c-.24-.19-.32-.33-.32-.4a.8.8,0,0,1,.14-.45l-.15-.11c-.19.27-.37.52-.45.62l1.83,1.5.11-.14c-.29-.27-.29-.31,0-.68Zm2.51,1-.11,0c-.17-.07-.22-.05-.27.25l-.06.4.76.46.38-.33c.15-.13.14-.2,0-.31l-.12-.08.09-.16,1,.6-.1.15c-.25-.11-.35-.16-.73.12l-2,1.46-.23-.08.37-2.55a.51.51,0,0,0-.27-.62l.09-.16,1.27.75ZM16.87,57l-.63-.36-.16,1h0Zm3.6,1.11c.17-.45.14-.49-.23-.65l.06-.17,1.46.53L21.7,58c-.4-.12-.45-.1-.61.34l-.5,1.37c-.17.45-.14.49.21.65l-.06.17L19.22,60a1.41,1.41,0,0,1-.64-.39.7.7,0,0,1-.1-.68.79.79,0,0,1,.85-.48c0-.15-.11-.52-.18-.75a2.28,2.28,0,0,0-.18-.52,1,1,0,0,0-.24-.29l.08-.15.24.09c.54.2.65.41.73.69a7.37,7.37,0,0,1,.17.81c0,.16.06.2.25.26l.1,0Zm-.25.68L20,58.73a.9.9,0,0,0-.43,0,.63.63,0,0,0-.14,1.15l.08,0c.25.09.26.09.33-.08ZM24,59c.08-.47.05-.51-.4-.61l0-.18,1.59.27,0,.18c-.4,0-.44,0-.52.45l-.25,1.44c-.08.47-.05.5.32.59l0,.18-1.58-.27c-.63-.1-1-.45-.94-1s.57-.75,1.12-.74l.29,0,.32.15Zm-.12.71a1,1,0,0,0-.29-.11c-.18,0-.59,0-.69.59a.56.56,0,0,0,.43.67h.07c.27,0,.28,0,.31-.18Zm1.86-6.2c0-.6-.78-.72-.85-.73a.32.32,0,0,1-.19-.15s-.34-.75-.93-.64-.44.61-.41.82a1.82,1.82,0,0,0,.32.74c.06.1.1.25.16.38s.29,0,.41.06a1.77,1.77,0,0,0,.79.12c.22,0,.72-.12.7-.6m5.37.38a.25.25,0,0,1,.2.29.26.26,0,0,1-.3.2,1.41,1.41,0,0,0-.46,0,1.7,1.7,0,0,0-.08.45.25.25,0,1,1-.5,0,3.11,3.11,0,0,1,0-.32h0a2.19,2.19,0,0,1-1,.14c-.74-.06-1.19-.5-1.16-1.12a1.2,1.2,0,0,1,.93-1l-1.73-2.2-1.71,2.2a1.18,1.18,0,0,1,.91,1c0,.62-.41,1.06-1.15,1.12a2.19,2.19,0,0,1-1-.14h0a3.11,3.11,0,0,1,0,.32.25.25,0,0,1-.24.26.25.25,0,0,1-.26-.24,1.7,1.7,0,0,0-.08-.45,1.44,1.44,0,0,0-.46,0,.26.26,0,0,1-.3-.2.25.25,0,0,1,.2-.29l.32,0,0,0a2.35,2.35,0,0,1-.38-.91,1.09,1.09,0,0,1,.71-1.37l.09,0a1.16,1.16,0,0,1,1.25.63l1.8-2.31-1-1.33L23.9,49.89l-.34-.45.89-.69-.35-.44-.89.69-.69-.89.44-.35.35.45.45-.35-.35-.44.45-.35.69.89.45-.34-.7-.89.4-.31,2.35,3,2.36-3,.4.31-.7.89.45.34.69-.89.45.35-.35.44.45.35.35-.45.45.35-.7.89L30,48.31l-.35.44.89.69-.34.45-1.79-1.38-1.05,1.33,1.8,2.31a1.16,1.16,0,0,1,1.25-.63,1.08,1.08,0,0,1,.82,1.29.36.36,0,0,1,0,.1,2.35,2.35,0,0,1-.38.91l0,0,.32,0m-.4-1.08c0-.21.07-.72-.41-.82s-.91.61-.93.64a.32.32,0,0,1-.19.15c-.06,0-.81.13-.85.73s.48.58.7.6a1.77,1.77,0,0,0,.79-.12c.12,0,.27,0,.41-.06s.1-.28.16-.38a1.82,1.82,0,0,0,.32-.74m13.88-6C41.22,52.25,36.14,56,30.32,57.05a5.51,5.51,0,0,1-6.43,0C18.09,56,13,52.24,9.65,46.87h12V45.15h11v1.72Zm-22.8,5.74a5.3,5.3,0,0,0,10.6,0V45.35H21.81ZM10.24,41.94h0m6.53,0h0m14.35-10.4-.1,0c-.09,0-.17.08-.1.16s.07-.08.17,0a.12.12,0,0,0,.16,0,.17.17,0,0,1,.17,0c.06,0,.14-.13,0-.17a.25.25,0,0,0-.19,0c-.07.05-.05,0-.12,0m.06.46c-.19,0-.43,0-.46,1.14a1.79,1.79,0,0,1,.61,0,5.05,5.05,0,0,1,.08-.68c0-.14,0-.42-.23-.44M32,30.75a4.54,4.54,0,0,1-.7-.26.08.08,0,0,0-.1,0h0a.08.08,0,0,0,0,.11l.21.1a.22.22,0,0,0-.09.21c0,.12.06.22.13.22s.14-.1.14-.22a.41.41,0,0,0,0-.16l.35.11M30.84,31a.37.37,0,0,0-.07-.2,1,1,0,0,0,.24-.15.09.09,0,0,0,0-.12.08.08,0,0,0-.11,0h0a2.18,2.18,0,0,1-.81.32.09.09,0,0,0-.06.1.08.08,0,0,0,.09.08h0c.14,0,.28-.07.42-.12a.43.43,0,0,0,0,.11c0,.13.07.24.15.24s.16-.11.16-.24m2.49-2.84.06.07a2,2,0,0,0,0-.24,1.2,1.2,0,0,0-.55-.72,1,1,0,0,1-.52.13,1.46,1.46,0,0,1,.23.61.87.87,0,0,1,.82.15M31,35.72c.13-.2.52-.66.52-.66.47-.49.87-.67,1.05-1.3s.18-.63.33-1.25-.28-1.37-.44-.83-.17,1.34-.35,1.85a2.3,2.3,0,0,1-.83,1.09c-.06.05-.1.11-.15.16L31,34.7c-.9-.39-1.25-.58-1.39-1.41s.11-1-.26-2c-.09-.15-.24.15-.32.36a1.35,1.35,0,0,0,0,.49,8.36,8.36,0,0,0,.14,1.65c.27.76.84,1,1.67,1.38a2.08,2.08,0,0,0-.32.75,2.53,2.53,0,0,0,.44,1.65A2.79,2.79,0,0,1,31,35.72m1.08-5a.77.77,0,0,0-.21-.94c0-.06,0-.13,0-.19a1.49,1.49,0,0,1,.75-1.08c.11-.05.28-.12.36,0a1.28,1.28,0,0,1,.14,1.06,2.86,2.86,0,0,0-.15-.41.36.36,0,0,0-.47-.19.37.37,0,0,0-.19.47A20.8,20.8,0,0,1,33,31.59l.13.43a5.77,5.77,0,0,1-.55,3.06A12.21,12.21,0,0,0,32,39.49,22.17,22.17,0,0,1,33.06,35a7.6,7.6,0,0,0,.36-.94,30,30,0,0,1-.86,6.32,5.13,5.13,0,0,1-.87,1.77,3.92,3.92,0,0,1-.51.57l0,0h0l-.05,0h0a8.31,8.31,0,0,1-1.87-1.63,7.22,7.22,0,0,1-.72-1c-1-1.67-1.26-3-1.36-5.87,0-.63,0-1.34-.05-2.14,0-.27,0-.55,0-.84a21.62,21.62,0,0,1,.21-3.77A13.68,13.68,0,0,1,29.05,27a7.35,7.35,0,0,1,2.19-.18.17.17,0,0,0,0,.18.89.89,0,0,0,.3.24,1.53,1.53,0,0,0-.52.46,1,1,0,0,0-.64-.56c-.39-.09-.8,0-1.11.63a1.22,1.22,0,0,0-1.14.09c-.51.42-.64,1.54.16,3a5.74,5.74,0,0,0-.2.58c-.63,2.1.28,3.27.87,4.41a33.67,33.67,0,0,1,1.3,3.82,11.11,11.11,0,0,0-.77-4.15c-.42-.87-1.25-2.22-.77-3.74a20.74,20.74,0,0,0,.69-2.06c0-.41-.51-.86-.66-.37q-.07.33-.18.66c-.34-.78-.39-1.41-.12-1.63a.77.77,0,0,1,.71.05,2.39,2.39,0,0,1,.72,1.05h0a1.43,1.43,0,0,1,0,.87c-.15.51-.35.72,0,1a2.33,2.33,0,0,0,.55.32s-1,2.17.5,2.42c.33.05.71-.09.71-.33a1.78,1.78,0,0,1,.19-1.11c.1-.19.43-.84.28-1.1a1.66,1.66,0,0,1-.1-.59m-.68,4.67a.13.13,0,0,1,.06.1.54.54,0,0,1,.1.16,3.49,3.49,0,0,1,0,1.67,2.42,2.42,0,0,0,.32-1.94,1.82,1.82,0,0,0-.2-.36s-.36.33-.31.37m2.19-4.32c0-.4,0-.81,0-1.21,0,.18-.11.36-.18.56s.11.41.17.65m-2.9-2,.15,0a4,4,0,0,0-.08-1c-.09-.38-.26-.5-.41-.54-.11.12-.28.07-.46.37a3.5,3.5,0,0,1,.77,1.23h0m1.2-1.52c-.25,0-.42.21-.47.56s-.1.7-.12.91a.62.62,0,0,1,.19,0,2.25,2.25,0,0,1,.56-1v0c0-.32-.07-.47-.16-.47m-.37,4.65c0-.14,0-.42-.23-.44s-.43,0-.46,1.14a1.79,1.79,0,0,1,.61,0,5.05,5.05,0,0,1,.08-.68m6.1-.51h-.25v.52h.25Zm-1.83-.66h-.25v.52h.25Zm.22-2.6h-.25v.52h.25Zm3.6-2h-.25v.52h.25Zm-2.94-.05h-.25v.52h.25Zm.93,1.13c-.54-.08-.46-.2-.42-.26s0-.19-.08-.2-.19,0-.17.21c0,.35.67.25.67.25M44,27.57l.2-.41-.49.23,0-.37-.26.31L43.06,27v.4Zm-.27,9.77c0,.08,0,.19-.1.21a.51.51,0,0,0-.21.1c-.09.07-.07.11.05.11s.42-.31.43-.37.19-.17.26-.21,0-.15,0-.15L44,37a.41.41,0,0,0-.06-.34,1.27,1.27,0,0,0,.78-.2c0-.06.19-.16.17-.23a.31.31,0,0,0-.11-.2,1.05,1.05,0,0,0-.7,0,.58.58,0,0,1-.63-.08s0-.08,0-.14.25,0,.34,0,.14-.21,0-.23c-.35-.08-.42.13-.42.13s-.11.26,0,.34a.75.75,0,0,0,.75.11.94.94,0,0,1,.62,0s0,.14,0,.15-.06.07-.09.1-.65.17-.85.17a.85.85,0,0,0-.75.16c-.16.11-.27.16-.35.12s.19-.45.24-.51,0-.13,0-.1c-.36.12-.38-.1-.42-.17s-.07,0-.11,0,.08.52-.25.6a.67.67,0,0,1-.8-.39l-.09,0a.77.77,0,0,0,.39.46c.16.09.15.14.16.21l.15.14a2.61,2.61,0,0,1-.13.28c0,.11-.42.44-.42.44S41,37.89,41,38s.46,0,.46,0a3,3,0,0,1,.67-.62s.6-.17.79-.24.11,0,.11,0c-.12.2-.23.41-.33.62-.17,0-.37.15-.3.22s.42-.12.42-.12.15-.26.15-.26l.25-.55.25-.11a.41.41,0,0,0,.22.26c.16.08,0,.15,0,.15M17.15,32.83a.63.63,0,0,1,.89,0,.45.45,0,0,1,.14.19,1.59,1.59,0,0,0-.61.06s.63.22.48.61a.84.84,0,0,0-.51-.28s.17.57-.17.72c0,0-.07-.51-.41-.49a.36.36,0,0,0-.33.38v0s-.2-.12-.2-.54a.25.25,0,0,0-.21-.27,3.56,3.56,0,0,1-1.8-1.14,4.22,4.22,0,0,1-1.38.41s-.18.19.1.22a2.14,2.14,0,0,1,1.82,1c.1.16.29.29.79.29,0,0,0,.56-1,.58,0,0,.59.43,1,.77.16.13.24,0,.35,0s.85-.56,1.09.14c0,0-.42-.08-.57,0a1,1,0,0,1,.31.82s-.27-.36-.5-.27.2.41-.2.58a.41.41,0,0,0-.43-.48s.07.31-.34.38c0,0,.24-.62-.19-.75-.12,0-2-.25-2.28-1a3.33,3.33,0,0,1,.52-.21s-1.1-.8-1.27-1.36c0,0-.23-.06-.14.07s.31.27.19,1.39a.71.71,0,0,0,.41.76,1.13,1.13,0,0,1-1.26-.47s0,1.5.83,1.54c.34,0,1,0,1,.89,0,0-.34-.41-.6-.33,0,0,.25.29.15.55,0,0-.33-.41-.5-.35,0,0,.14.29,0,.47,0,0-.28-.64-.43-.63s-.3.3-.27.59a.32.32,0,0,1-.22-.53c.1-.18.18-.16.25-.27s-2.19-.93-1.91-2.59c0,0,.37.31.64.07s.1-.75-.38-1.14l.6-.22c.13-.05.06-.24.13-.4a1.25,1.25,0,0,1-1-.32,1,1,0,0,1-.17-.94,4.87,4.87,0,0,1,.85-1.42l.26-.36c.18-.27.41-.81.25-1.09a.46.46,0,0,0-.41-.21h-.25c.17.35-.12.84-.53,1.1-.65.4-.55.88-.55.88a4.59,4.59,0,0,1-.08-1.69c.13-.52.56-1.1,1.05-.63l.32,0a.85.85,0,0,1,.74.39c.34.56-.24,1.42-.26,1.45l-.27.37A5,5,0,0,0,10,31.29c-.06.29-.06.53.09.65a1.16,1.16,0,0,0,.83.19,6.29,6.29,0,0,1,1.57-1c.27-.09.3-.36.1-.32s-1,.16-1.29-.34c0,0,.95-.26,1-.76a.83.83,0,0,1-.88.06s.77-.56.61-1.05c-.06-.17-.21-.78,0-.92s-.19-.27-.35-.26a.54.54,0,0,1,.74,0c0,.05.16,0,.23,0a3,3,0,0,1,.65-.17c.23,0,.35-.12.61.22a3.89,3.89,0,0,0,.42.19c.1,0,.07.17.05.36s-.05.06-.6.16c-.15,0-.36.61-.27.63s.65-.21.76-.16a.26.26,0,0,1,0,.37c0,.1-.21,0-.36.05s-.44.26-.1.57.87.43,1.45-.67a1.18,1.18,0,0,1,.14.8l1.48-1.22a1.09,1.09,0,0,1,.48-1.12s-.2.35-.12.53a1.28,1.28,0,0,1,.65-.29s-.41.46-.39.55.56-.16.69,0-.58.25-.58.4.41.17.6.12c0,0-.08.41-.77.34a6.15,6.15,0,0,1-1.53,1.48c-.24.15,0,.49.56.32a1,1,0,0,0,.44-.32s.48,1-1.14,1.07a15.77,15.77,0,0,1,1.11,1.2c.14.2.22,0,.28-.07m-3.84-4.95a.15.15,0,1,0,.29,0v0a.29.29,0,0,0,0-.09h.11a.08.08,0,0,0,.07-.08.08.08,0,0,0-.08-.07l-.52,0s-.07,0-.07.06,0,0,.07,0h.18a.17.17,0,0,0,0,.1m1,.62s1.27.18,1.35-.51c0-.33-.17-.45-.35-.42s-.3.16-.15.39.24.38-.85.54M13.6,45.43,11,45.84l2.77-.76ZM30,42.33a7.42,7.42,0,0,1-1.87-2c-1.4-2.24-1.6-4.11-1.59-9.23,0-.2,0-.4,0-.59l-.75-.08s-.17,5.38-.17,6c0,.81.23,1.56.36.05.06-.76-.11-3.18.09-3.18s.34,9.14,0,9.14a16,16,0,0,0-1.69-.1,1.51,1.51,0,0,0-1.3-.26,2.42,2.42,0,0,0,.62.32L14,44.92l-.59-.35-4,1.67,4.45-.43.24-.67L24,42.52c.43.19.87.37.89.39s1.36-.09,1.33.4c0,.26-.37.46-.72.6s-.83,0-.81.1a1.72,1.72,0,0,0,1.14.09,5.62,5.62,0,0,0,1.86-1.05s2.14-.15,2.43-.59a.49.49,0,0,1-.12-.13M21.46,19.27a2.42,2.42,0,0,0-.63,2.08c.05,1.42.75,1.57,1.35.83.47-.58.66-1.21.55-1.17-.32.1-.9.15-1.15-.18a1.45,1.45,0,0,1,.05-1.49Zm9.12,2.62a1.91,1.91,0,0,1,.68-.12.67.67,0,0,1,.54.27l.14.39s.39.19.53,0,.06-.35-.1-.54a1,1,0,0,0-.95-.4,1.45,1.45,0,0,0-.87.32Zm-.08,4.16s.57-.17.57-.21a.7.7,0,0,1,.41-.49.2.2,0,0,0,.15-.19.68.68,0,0,0-.21-.67,4.13,4.13,0,0,1-.75-1.82c0-.11-.09,0-.09,0s.37,1.84-.3,1.92a1,1,0,0,1-.81,1.08c-.1,0-.16.08-.16.15a1.18,1.18,0,0,1-.16.49,8.25,8.25,0,0,1,1.4-.18.31.31,0,0,0-.05-.1M27,25.68c-1.19-.14-1.32-.92-1.32-1.26s.28-.15-.22-.41a2,2,0,0,0-1.72-.15l.13.13a1.74,1.74,0,0,1,1.14.33c-.15,2.09,1.27,1.95,1.27,1.95a1.24,1.24,0,0,0,.95.57l.44-.14a1.23,1.23,0,0,1-.67-1m-.79-15.1a3.07,3.07,0,0,1,1.61-.49.64.64,0,0,1,.69.44c.21-.21.08-.76-.63-.75a2,2,0,0,0-1.67.8m1.17.05a1.92,1.92,0,0,0-.84.23.09.09,0,0,0,0,.13h0a.11.11,0,0,0,.14,0h0s0,0,.05-.05V11a.18.18,0,0,0,.19.16h0a.18.18,0,0,0,.15-.2.16.16,0,0,0-.08-.13,1.21,1.21,0,0,1,.38-.06c.05,0,.09,0,.09-.08s0,0-.1,0Zm-1.14,1.22c-.1,0-.16.1-.08.16s.06-.09.17,0a.15.15,0,0,0,.17,0,.18.18,0,0,1,.16,0c.06,0,.12-.13,0-.14a.28.28,0,0,0-.18,0c-.07.06-.05,0-.12,0h-.1m-.09.58a.41.41,0,0,0,.41.16.6.6,0,0,0,.38-.33,1.22,1.22,0,0,0-.33,0c-.1,0-.08.1-.19.07s-.16,0-.27.08M54.26,31.3C54.26,14,42.09,0,27.13,0S0,14,0,31.3,12.17,62.6,27.13,62.6s27.13-14,27.13-31.3m-.4,0c0,17-12,30.9-26.73,30.9S.4,48.34.4,31.3,12.39.4,27.13.4,53.86,14.26,53.86,31.3M14.05,16.47l-.17,1.37a1.41,1.41,0,0,1,.41-.07.55.55,0,0,1,.58.52.28.28,0,0,1,0,.09c0,.33-.12.48-.3.48s-.42-.22-.52-.29a.12.12,0,0,0-.16,0,.39.39,0,0,0-.15.21.19.19,0,0,0,0,.19,1.21,1.21,0,0,0,.56.16,1.5,1.5,0,0,0,.73-.26.92.92,0,0,0,.42-.75.79.79,0,0,0-.82-.73h-.05a1,1,0,0,0-.48.12l.08-.56H15.3l.08-.49Zm26.84,0-.17,1.37a1.48,1.48,0,0,1,.42-.07.55.55,0,0,1,.57.52v.09c0,.33-.12.48-.3.48s-.43-.22-.52-.29a.14.14,0,0,0-.17,0,.45.45,0,0,0-.15.21.17.17,0,0,0,.06.19,1.17,1.17,0,0,0,.55.16,1.46,1.46,0,0,0,.73-.26.9.9,0,0,0,.42-.75.77.77,0,0,0-.82-.73h0a1,1,0,0,0-.48.12l.09-.56h1.07l.08-.49Zm-2.29,0c0,.19-.05.39-.1.77h.19c.09-.24.11-.26.38-.26h.87c-.38.68-.81,1.39-1.27,2.08l0,.07.6-.05c.35-.84.74-1.72,1.15-2.55l0-.06ZM12,16.64c.31-.05.7-.13,1-.21V18.6c0,.27,0,.28.34.32v.16H12v-.16c.32,0,.33-.05.33-.32V17c0-.17,0-.2-.15-.21H12Z"/></svg>