<?xml version="1.0" standalone="no"?>
<!DOCTYPE svg PUBLIC "-//W3C//DTD SVG 20010904//EN"
 "http://www.w3.org/TR/2001/REC-SVG-20010904/DTD/svg10.dtd">
<svg version="1.0" xmlns="http://www.w3.org/2000/svg"
 width="1388.000000pt" height="1388.000000pt" viewBox="0 0 1388.000000 1388.000000"
 preserveAspectRatio="xMidYMid meet">
<metadata>
Created by potrace 1.11, written by Peter Selinger 2001-2013
</metadata>
<g transform="translate(0.000000,1388.000000) scale(0.100000,-0.100000)"
fill="#000000" stroke="none">
<path d="M6645 13664 c-839 -65 -1559 -279 -2245 -667 -2442 -1381 -3737
-4515 -3130 -7577 472 -2380 2024 -4286 4040 -4960 558 -187 1038 -265 1630
-265 320 0 439 8 705 46 1395 200 2659 964 3606 2179 1228 1574 1741 3740
1383 5830 -408 2376 -1895 4323 -3884 5083 -410 157 -840 259 -1316 313 -132
14 -672 27 -789 18z m770 -104 c461 -51 844 -139 1235 -282 1876 -686 3335
-2467 3824 -4668 130 -586 181 -1059 180 -1685 0 -485 -25 -806 -95 -1235
-295 -1805 -1215 -3379 -2559 -4377 -756 -562 -1605 -899 -2535 -1008 -191
-22 -671 -31 -873 -16 -689 53 -1277 214 -1897 520 -893 442 -1658 1121 -2257
2006 -688 1015 -1083 2158 -1205 3485 -25 273 -25 990 0 1265 120 1307 510
2443 1188 3457 504 753 1147 1372 1899 1828 146 89 537 285 705 354 474 194
1003 321 1520 365 141 12 740 6 870 -9z"/>
<path d="M6963 13405 c-159 -43 -249 -143 -260 -288 -14 -171 95 -300 285
-337 68 -14 193 -9 280 10 l52 12 0 103 0 103 38 23 37 22 -35 8 c-19 4 -95 9
-170 10 -118 3 -135 1 -138 -13 -3 -17 8 -22 70 -32 35 -6 37 -9 44 -51 9 -64
-3 -133 -26 -145 -50 -27 -150 1 -202 56 -96 103 -95 339 4 431 81 76 216 69
286 -15 21 -24 48 -57 62 -73 l25 -30 -4 93 c-1 51 -5 95 -7 97 -2 2 -34 10
-71 17 -88 17 -204 16 -270 -1z"/>
<path d="M6412 13385 c-104 -14 -187 -44 -156 -56 11 -4 31 -8 45 -8 14 -1 33
-7 43 -14 24 -18 64 -187 72 -302 5 -81 3 -94 -18 -135 -42 -82 -149 -113
-217 -62 -56 41 -97 160 -121 352 l-10 85 44 43 c53 49 53 49 -99 27 -110 -16
-211 -43 -200 -53 3 -4 25 -12 48 -17 39 -10 43 -15 59 -60 9 -28 24 -102 33
-165 37 -252 99 -319 285 -308 54 4 89 12 125 30 127 66 156 160 120 383 -8
50 -15 112 -15 140 0 44 4 53 42 92 23 24 36 43 28 42 -8 -1 -57 -7 -108 -14z"/>
<path d="M7630 13361 c0 -3 16 -22 36 -42 21 -22 36 -47 36 -61 0 -27 -54
-284 -80 -378 -18 -69 -15 -65 -102 -88 l-35 -9 38 -16 c20 -9 100 -30 176
-46 251 -55 384 -39 481 59 88 87 116 229 66 335 -51 112 -164 165 -468 224
-82 15 -148 25 -148 22z m362 -133 c59 -25 105 -75 114 -124 11 -59 -1 -165
-26 -221 -23 -55 -82 -117 -126 -133 -33 -13 -130 -13 -154 0 -47 25 -44 67
26 358 l36 154 41 -6 c22 -4 62 -16 89 -28z"/>
<path d="M5378 13146 c-64 -17 -248 -89 -248 -97 0 -4 20 -10 44 -13 26 -4 51
-16 63 -29 18 -19 130 -333 147 -410 5 -22 -1 -35 -35 -72 -33 -36 -38 -45
-23 -45 20 0 481 154 491 164 8 8 -27 196 -37 196 -4 0 -16 -32 -25 -70 -9
-39 -25 -81 -36 -94 -24 -30 -123 -62 -157 -50 -28 10 -54 71 -129 303 l-46
144 46 43 c44 43 45 44 19 43 -15 0 -48 -6 -74 -13z"/>
<path d="M8510 13144 c0 -3 14 -26 32 -52 l32 -46 -26 -71 c-14 -38 -43 -107
-63 -152 -46 -105 -63 -188 -47 -241 17 -55 74 -117 138 -148 74 -36 193 -45
248 -19 62 30 118 103 171 224 26 61 59 128 73 149 22 35 31 40 81 48 l56 9
-47 28 c-50 30 -190 87 -214 87 -9 0 -2 -16 21 -46 19 -25 35 -53 35 -63 0
-51 -81 -241 -139 -325 -87 -126 -281 -74 -281 76 0 45 23 120 71 236 56 136
68 149 135 158 l55 6 -33 21 c-57 34 -298 133 -298 121z"/>
<path d="M9340 12764 c0 -3 15 -27 34 -53 46 -64 40 -81 -94 -281 -107 -159
-117 -168 -193 -172 l-62 -3 75 -53 c41 -30 101 -67 134 -84 l59 -30 -23 39
c-13 21 -27 42 -32 47 -17 20 -7 55 40 132 63 104 136 214 142 214 3 0 22
-129 43 -288 21 -158 41 -294 43 -302 2 -8 16 -23 31 -32 l27 -16 116 172 c63
94 133 195 155 223 l40 52 70 1 70 0 -70 51 c-65 47 -180 119 -191 119 -2 0 9
-26 25 -58 l30 -59 -38 -69 c-21 -38 -61 -102 -88 -142 -44 -63 -51 -69 -56
-50 -3 13 -22 137 -43 275 l-38 253 -51 34 c-61 40 -155 89 -155 80z"/>
<path d="M4750 12741 c-69 -38 -95 -140 -54 -212 26 -46 99 -83 147 -74 45 9
92 37 113 70 21 33 22 111 1 152 -38 72 -137 103 -207 64z"/>
<path d="M4096 12493 c-7 -40 -1 -79 59 -358 39 -182 41 -242 12 -307 -10 -21
-13 -38 -8 -38 19 0 211 134 211 148 0 10 -11 13 -45 10 l-45 -3 -20 53 c-11
29 -20 59 -20 66 0 7 34 36 75 65 l76 53 51 -34 c28 -18 55 -36 60 -39 5 -3 1
-25 -7 -49 -8 -24 -14 -44 -12 -46 4 -4 134 82 210 139 l69 52 -79 5 c-43 3
-85 9 -93 14 -8 5 -116 74 -239 154 -123 79 -229 146 -236 148 -9 4 -15 -8
-19 -33z m164 -221 c36 -25 69 -48 73 -52 7 -6 -94 -80 -111 -80 -5 0 -16 33
-25 73 -10 39 -20 83 -24 96 -7 28 -8 28 87 -37z"/>
<path d="M6680 12514 c-774 -54 -1280 -235 -1631 -584 -172 -169 -277 -340
-348 -562 -62 -196 -61 -167 -61 -1455 l0 -1173 28 -6 c88 -19 132 -62 131
-127 0 -23 -6 -58 -13 -77 l-13 -35 -19 59 c-24 77 -59 111 -130 127 -69 16
-76 8 -71 -78 2 -53 8 -68 36 -104 l34 -42 -18 -34 c-23 -43 -62 -76 -129
-110 -67 -35 -169 -38 -237 -7 -92 42 -159 144 -145 219 4 19 10 35 14 35 3 0
25 -19 48 -41 50 -49 110 -62 163 -35 122 63 74 246 -64 246 -53 0 -86 -22
-119 -79 l-30 -50 -24 35 -24 36 24 16 c12 9 38 30 56 48 26 26 32 40 32 76 0
55 -16 86 -59 115 -89 60 -201 -5 -201 -118 0 -33 6 -47 33 -73 17 -17 42 -38
54 -46 l22 -15 -23 -38 -24 -39 -28 52 c-32 59 -69 83 -127 82 -46 -1 -81 -22
-107 -65 -55 -89 11 -197 120 -197 35 0 48 7 89 45 26 25 51 45 54 45 3 0 9
-16 13 -35 16 -86 -74 -199 -181 -231 -114 -32 -247 12 -310 104 -19 27 -21
39 -14 75 16 82 11 114 -21 151 -18 20 -51 42 -78 51 -26 10 -54 20 -62 23
-18 6 70 30 118 31 l32 1 0 978 -1 977 -25 -30 c-47 -57 -241 -350 -321 -485
-479 -809 -758 -1711 -845 -2730 -17 -202 -17 -838 0 -1025 55 -598 148 -1055
323 -1580 44 -131 85 -243 92 -248 7 -4 105 -5 220 -1 114 3 207 3 207 0 0 -3
-14 -31 -31 -62 -54 -94 -38 -172 38 -193 25 -7 333 -11 903 -11 804 0 867 1
900 18 70 35 75 107 15 199 l-35 53 206 2 206 3 -97 60 c-168 103 -225 168
-225 255 0 67 40 129 137 217 130 117 154 143 180 201 30 64 27 83 -33 213
-58 125 -71 197 -55 311 25 190 106 374 281 638 128 193 171 270 201 357 l18
53 -36 -15 c-49 -21 -96 -19 -117 4 -24 27 -46 105 -46 166 0 66 48 334 101
563 119 512 262 924 446 1284 67 132 147 248 161 234 6 -7 -5 -34 -113 -276
-90 -200 -125 -291 -144 -378 -8 -40 -7 -46 26 -93 34 -50 34 -53 23 -97 -6
-25 -38 -114 -69 -197 -80 -205 -184 -528 -217 -671 -32 -142 -35 -207 -10
-232 19 -19 19 -19 89 72 31 40 55 45 81 17 32 -35 45 -93 46 -198 0 -211 -68
-474 -185 -712 -58 -118 -141 -261 -151 -261 -2 0 -22 16 -44 36 -39 35 -41
36 -72 23 -85 -35 -149 -129 -170 -247 -10 -61 -9 -75 6 -116 20 -53 57 -86
95 -86 36 0 108 47 153 99 20 23 60 87 90 143 73 137 107 187 146 210 l32 20
0 -56 c0 -59 -59 -305 -111 -461 -43 -130 -111 -262 -168 -326 -30 -33 -80
-73 -128 -101 -128 -74 -223 -165 -223 -213 0 -49 81 -91 231 -120 83 -16 462
-38 498 -28 17 4 19 21 25 181 4 97 14 312 22 477 8 165 18 431 24 590 9 258
18 403 49 788 13 153 10 151 176 143 200 -9 223 -13 229 -45 23 -118 28 -141
36 -141 15 0 40 84 48 164 l8 79 -34 14 c-20 8 -113 20 -226 28 -247 18 -289
32 -302 102 -11 60 68 624 131 939 19 94 35 183 35 197 0 13 -14 55 -31 91
l-31 66 26 83 c15 45 79 187 143 315 129 259 129 259 291 371 48 33 101 72
117 86 l30 26 -58 -5 c-82 -9 -151 -40 -312 -140 -77 -48 -166 -96 -197 -108
-55 -19 -58 -23 -74 -72 -64 -191 -216 -410 -309 -446 -113 -43 -206 45 -241
227 -19 99 -18 294 2 391 28 138 94 251 168 286 64 30 134 17 241 -48 44 -26
60 -30 125 -30 49 0 99 7 145 22 76 23 185 86 185 106 0 23 108 311 116 310
20 -4 44 -72 44 -127 0 -56 1 -58 23 -51 24 7 111 69 197 140 58 47 89 66 129
79 l24 7 -28 -48 c-15 -27 -48 -77 -72 -110 -23 -34 -43 -65 -43 -69 0 -11 54
4 148 41 l87 34 18 -22 c37 -48 37 -53 6 -91 -17 -20 -58 -58 -92 -84 -34 -25
-66 -50 -72 -56 -6 -5 18 -6 65 -2 l75 7 -33 -35 -33 -34 113 -7 c145 -9 308
-32 397 -55 l71 -19 0 73 c0 60 -3 75 -21 91 -29 26 -49 68 -49 102 0 21 17
50 61 102 33 40 65 84 70 97 14 38 11 144 -7 204 -35 116 -55 159 -75 159 -24
0 -24 1 11 -100 53 -153 35 -268 -51 -312 -20 -10 -65 -23 -100 -30 -35 -6
-66 -12 -68 -14 -2 -2 16 -37 39 -80 l42 -76 -52 7 c-111 15 -91 -20 -216 369
-61 191 -113 349 -115 351 -7 7 -205 -92 -289 -145 -268 -168 -448 -365 -509
-558 -18 -58 -27 -72 -51 -82 -37 -15 -55 -9 -126 46 -78 61 -99 71 -196 94
-153 36 -406 46 -610 24 -27 -2 -48 -1 -48 4 0 4 21 36 46 71 l46 64 192 -6
c217 -6 323 -22 475 -73 57 -19 105 -33 106 -32 2 2 -29 45 -68 97 -80 107
-267 304 -402 424 -49 45 -91 84 -93 88 -4 8 87 29 126 29 32 0 163 -114 309
-268 64 -68 93 -93 97 -82 18 52 119 319 147 390 42 107 118 191 188 210 32 8
249 49 267 50 1 0 4 -22 8 -50 8 -60 36 -96 104 -133 143 -78 400 -76 540 4
45 26 103 87 114 121 6 16 260 -118 313 -164 30 -27 58 -66 85 -121 71 -146
73 -157 80 -592 6 -385 6 -391 32 -460 35 -96 67 -158 134 -255 74 -109 98
-162 89 -206 -7 -39 -22 -49 -87 -59 -27 -4 -48 -10 -48 -14 0 -4 11 -41 25
-82 53 -155 105 -394 105 -483 0 -102 42 -201 142 -332 33 -43 68 -97 79 -119
20 -44 25 -119 9 -161 -7 -16 -12 -276 -14 -703 -2 -372 -9 -757 -15 -856 -39
-625 -131 -1076 -276 -1359 l-54 -106 459 0 c253 0 460 -2 460 -5 0 -2 -14
-24 -31 -48 -59 -84 -46 -172 28 -199 31 -10 209 -13 913 -13 815 0 877 1 907
18 61 33 62 117 1 204 l-29 43 249 0 250 0 85 258 c218 657 321 1261 334 1967
10 527 -30 962 -133 1470 -168 825 -526 1653 -997 2309 l-57 79 0 -965 0 -964
63 -21 62 -20 -57 -17 c-58 -17 -104 -54 -119 -94 -14 -35 -11 -86 6 -108 22
-29 19 -37 -31 -93 -52 -58 -100 -86 -173 -102 -159 -34 -333 105 -307 246 l7
37 54 -51 c47 -45 59 -51 96 -51 53 0 102 30 123 74 20 42 20 67 2 110 -43
104 -188 104 -238 0 -25 -50 -35 -51 -61 -7 l-18 31 36 20 c72 43 96 129 52
193 -41 60 -113 77 -174 39 -43 -26 -64 -60 -66 -108 -1 -47 19 -82 72 -120
l39 -29 -20 -31 c-25 -39 -32 -40 -48 -3 -39 96 -153 123 -223 53 -78 -79 -20
-222 91 -222 42 0 67 13 114 58 l37 35 11 -28 c20 -54 -6 -121 -70 -179 -49
-44 -86 -61 -152 -71 -93 -14 -220 45 -278 130 l-32 46 41 44 c43 47 50 78 35
155 -7 32 -7 32 -55 27 -89 -11 -134 -53 -154 -145 -3 -18 -10 -30 -14 -27
-14 8 -34 94 -27 119 10 42 53 82 101 96 l45 13 0 1074 c0 671 -4 1110 -10
1171 -13 117 -52 281 -91 380 -259 651 -822 1025 -1704 1128 -124 14 -578 26
-695 18z m105 -118 c17 -11 31 -37 45 -86 19 -65 40 -100 60 -100 5 0 22 26
37 58 38 78 79 105 154 100 66 -5 115 -35 135 -84 18 -43 18 -98 0 -133 -15
-28 -72 -83 -115 -112 l-24 -15 34 -24 c52 -37 124 -59 166 -50 52 12 80 45
105 123 21 64 26 72 63 88 49 23 123 24 172 4 73 -31 101 -73 110 -168 11
-123 -48 -237 -142 -272 -58 -23 -202 -17 -258 10 -22 10 -63 47 -95 87 -51
62 -133 120 -148 105 -3 -3 13 -29 36 -58 55 -73 98 -163 107 -226 8 -51 9
-53 73 -91 89 -54 109 -90 117 -219 9 -144 24 -163 181 -222 53 -20 97 -41 99
-48 6 -17 -150 -50 -319 -68 -81 -8 -152 -15 -158 -15 -17 0 -2 -47 52 -162
l49 -106 -16 -39 c-35 -83 -112 -133 -240 -153 -182 -29 -358 53 -390 182 -6
23 -3 27 27 33 63 13 70 16 65 35 -4 14 3 20 32 25 20 4 56 16 81 28 l45 21
-80 6 c-44 4 -94 14 -111 23 -34 17 -81 72 -107 122 -23 46 -87 256 -81 266
10 17 40 9 64 -16 32 -34 46 -31 59 8 8 22 23 39 44 50 l32 16 -32 0 c-17 1
-67 -6 -110 -14 -43 -8 -79 -15 -80 -15 -2 0 -3 13 -3 28 0 37 32 53 123 60
37 2 70 8 72 13 9 14 -109 31 -190 27 -77 -4 -139 -25 -157 -52 -14 -20 -8
-60 17 -121 43 -104 27 -180 -56 -270 l-43 -46 168 2 c158 2 168 1 188 -19
l21 -21 -34 -5 c-133 -23 -368 -33 -452 -20 l-37 7 69 73 c39 40 77 87 86 104
18 35 17 37 -49 145 -57 92 -46 126 73 225 34 28 71 65 81 82 10 16 25 78 34
136 21 134 53 206 134 297 34 38 62 73 62 77 0 4 -9 17 -20 28 -29 29 -100 27
-135 -2 -24 -21 -27 -32 -35 -136 -14 -175 -56 -233 -173 -240 -75 -4 -134 22
-181 80 -45 58 -48 127 -8 213 l31 66 -34 45 c-39 51 -41 63 -21 102 37 72
118 112 226 112 87 0 144 -21 259 -92 40 -26 79 -44 87 -41 22 8 16 36 -16 79
-51 68 -33 146 44 180 37 17 97 12 131 -10z m-3999 -3691 c14 -9 32 -33 41
-53 13 -30 13 -45 2 -94 -13 -64 -20 -64 -39 -3 -20 66 -54 101 -112 120 -75
25 -78 28 -33 42 49 15 107 10 141 -12z m2677 -25 c22 -24 27 -40 27 -78 -1
-26 -7 -60 -14 -77 l-13 -30 -18 55 c-23 71 -56 106 -122 127 -59 18 -58 28 2
41 56 12 105 -2 138 -38z m3084 31 c16 -9 15 -11 -12 -20 -102 -38 -119 -53
-156 -150 l-17 -46 -11 40 c-22 78 -15 113 29 158 39 39 42 40 95 34 30 -3 62
-10 72 -16z m2648 5 l40 -12 -64 -23 c-78 -28 -103 -54 -126 -127 -14 -46 -20
-53 -27 -39 -6 9 -12 43 -15 74 -5 51 -3 60 22 90 44 52 89 62 170 37z m-302
-102 c20 -3 37 -9 37 -13 0 -4 -24 -15 -54 -24 -69 -22 -101 -55 -122 -125
l-17 -57 -13 30 c-23 52 -18 119 12 154 25 31 75 52 104 46 8 -2 32 -7 53 -11z
m-7817 -10 c50 -33 65 -91 43 -168 -12 -45 -21 -39 -44 31 -19 62 -47 86 -122
110 l-56 17 29 13 c42 18 120 16 150 -3z m2063 2 c15 -8 35 -26 45 -40 20 -31
21 -111 1 -146 -15 -27 -13 -29 -35 45 -17 56 -45 82 -114 107 l-60 22 30 13
c39 17 99 16 133 -1z m3691 3 l33 -12 -64 -23 c-73 -26 -97 -51 -120 -127
l-16 -52 -17 37 c-28 64 -22 105 23 149 33 34 45 39 83 39 25 0 60 -5 78 -11z
m-4115 -210 c22 -60 70 -118 111 -135 19 -8 64 -14 101 -14 79 0 70 -15 -15
-26 -101 -12 -184 35 -228 131 -27 57 -29 76 -12 93 15 15 21 8 43 -49z m4465
36 c0 -14 -44 -113 -61 -137 -33 -46 -94 -72 -169 -71 -36 1 -76 6 -90 11 -21
9 -16 11 36 11 116 2 174 40 221 147 23 54 29 61 45 53 10 -5 18 -12 18 -14z
m-510 -132 c18 -46 24 -86 28 -190 l5 -133 553 0 554 0 -2 -327 -3 -328 -57
-3 c-43 -2 -58 0 -58 10 0 36 -25 93 -70 162 -94 145 -107 183 -68 210 35 25
46 19 53 -26 4 -24 15 -59 25 -78 18 -35 86 -108 93 -99 11 13 24 175 16 203
-16 59 -37 69 -119 57 -155 -21 -167 -79 -50 -261 60 -94 90 -163 76 -178 -4
-4 -31 -6 -59 -5 -39 2 -74 13 -137 45 -47 24 -84 47 -83 53 1 5 32 15 69 22
37 7 68 14 70 16 2 2 -13 9 -34 15 -21 7 -56 27 -78 46 l-39 35 44 1 c37 0 42
2 36 18 -15 34 -16 118 -2 168 l13 52 -90 5 c-86 4 -94 3 -143 -25 -29 -16
-53 -31 -53 -33 0 -1 22 -17 50 -35 27 -18 48 -36 45 -40 -3 -5 -23 -11 -45
-15 l-40 -7 31 -21 c48 -33 57 -52 35 -76 -24 -26 -77 -36 -118 -22 -17 6 -71
41 -119 78 -79 60 -89 71 -99 112 -11 46 -11 46 -54 46 -38 0 -43 -2 -35 -17
13 -24 11 -28 -13 -28 l-21 0 21 -23 c27 -28 28 -37 4 -37 -38 0 -30 -14 22
-44 53 -30 226 -174 226 -188 0 -3 -24 -14 -52 -24 l-53 -18 46 -10 47 -11
-68 -74 -69 -73 -51 17 c-28 9 -53 15 -54 14 -2 -2 -6 -28 -10 -57 l-7 -53 32
16 31 17 -7 -44 -7 -43 22 28 c19 24 28 28 54 23 27 -5 35 -1 57 27 15 18 61
64 102 101 l76 67 40 -21 c38 -19 41 -24 41 -60 0 -32 -7 -48 -37 -82 -21 -23
-55 -54 -76 -69 l-37 -27 31 -20 31 -20 -62 -36 -62 -36 -43 19 -44 19 -10
-49 c-17 -77 -16 -83 11 -65 30 21 38 20 38 -6 0 -40 16 -53 23 -19 8 39 16
39 45 -2 l22 -32 0 47 c0 51 -2 49 85 68 28 6 58 13 68 16 16 5 17 -7 17 -150
l0 -156 -280 0 -279 0 -3 808 -3 807 -27 80 -27 80 24 -27 c13 -15 33 -53 45
-85z m-3433 32 c-21 -60 -22 -67 -28 -1070 -5 -885 -8 -1019 -22 -1085 -35
-159 -95 -298 -185 -434 -59 -89 -206 -237 -294 -296 l-67 -45 -3 -360 -3
-360 -582 -3 -583 -2 0 286 c0 269 1 286 18 279 60 -25 203 -57 299 -66 132
-14 270 -2 416 35 85 22 234 82 177 71 -187 -34 -221 -37 -375 -32 -196 6
-297 31 -460 112 -129 64 -201 116 -308 223 -143 140 -249 325 -305 530 l-27
97 -3 883 -3 882 1134 0 1135 0 4 133 c5 134 20 198 63 264 25 38 26 24 2 -42z
m5697 39 c26 -10 19 -29 -28 -72 -80 -74 -144 -93 -242 -71 l-59 13 80 6 c92
6 155 36 202 95 16 19 29 35 30 35 1 0 8 -3 17 -6z m-7965 -49 c62 -58 105
-75 188 -75 53 0 64 -3 55 -12 -20 -20 -170 -17 -207 4 -32 17 -125 107 -125
120 0 22 46 3 89 -37z m8009 -1017 l-3 -673 -275 0 -275 0 -3 161 -2 162 32
27 c18 16 28 30 22 32 -6 2 -19 10 -29 17 -18 13 -18 14 3 25 12 6 44 38 71
71 l50 60 3 -63 c2 -34 0 -89 -4 -122 -3 -33 -5 -61 -4 -63 2 -1 25 7 51 18
l47 20 -7 -47 c-9 -60 -24 -78 -82 -92 -43 -11 -123 -47 -123 -55 0 -3 -3 -12
-6 -21 -6 -16 -5 -16 24 -1 42 22 44 21 38 -16 -6 -33 -6 -33 10 -10 21 28 30
28 37 0 l6 -21 19 22 18 23 18 -28 c18 -26 20 -26 32 -9 11 15 11 21 -1 39 -8
11 -15 23 -15 27 0 3 25 23 55 44 62 42 108 95 130 149 21 50 19 64 -12 71
-16 3 -39 14 -53 25 -25 19 -25 20 -8 50 17 30 17 33 -2 71 l-21 39 26 10 c15
6 31 10 36 10 24 0 59 50 59 84 0 49 -13 79 -81 182 -70 107 -83 153 -48 178
37 25 46 20 53 -33 4 -27 18 -66 34 -89 27 -41 79 -88 88 -80 2 3 7 54 11 115
l6 109 -29 23 c-25 19 -36 22 -77 17 -77 -11 -120 -29 -136 -58 -22 -39 -2
-104 60 -196 100 -146 106 -222 19 -222 -23 0 -206 108 -233 138 -21 23 -48
88 -40 96 4 3 19 6 35 6 l28 0 0 89 c0 101 8 91 -95 111 -33 6 -67 13 -75 16
-12 3 -19 -9 -28 -42 -7 -27 -25 -58 -43 -75 l-30 -28 36 -24 c41 -28 37 -37
-21 -37 -36 0 -54 9 -122 59 -74 55 -80 63 -92 110 -6 28 -14 51 -17 51 -2 0
-25 -12 -49 -26 -44 -26 -44 -27 -29 -50 14 -22 14 -25 -5 -36 -23 -15 -26
-28 -6 -28 23 0 119 -70 195 -142 l70 -67 -56 -16 -56 -16 31 -22 c18 -12 32
-25 32 -29 0 -5 -72 -8 -160 -8 l-160 0 0 330 0 330 565 0 565 0 -2 -672z
m-505 368 c20 0 22 -7 6 -23 -13 -13 -46 -3 -82 23 -21 14 -20 15 18 8 22 -4
48 -8 58 -8z m-46 -86 l26 -20 -24 0 c-13 0 -34 3 -47 6 -18 5 -20 9 -11 20
15 19 26 18 56 -6z m-245 -320 l198 0 -2 -317 -3 -318 -128 -3 -128 -3 3 72 3
73 53 12 c69 15 104 42 119 90 16 54 16 126 0 149 -12 16 -15 9 -21 -60 -4
-43 -13 -90 -21 -105 -15 -29 -59 -50 -106 -50 l-29 0 0 70 0 70 -29 0 c-39 0
-43 8 -35 75 7 55 8 57 58 86 l51 29 -126 0 c-70 0 -141 3 -158 6 -30 6 -31 8
-31 64 0 31 3 60 8 64 4 5 34 5 66 2 32 -3 148 -6 258 -6z m-372 -160 c0 -174
2 -170 -57 -149 -21 7 -66 54 -147 154 -64 79 -116 146 -116 149 0 4 72 6 160
6 l160 0 0 -160z m96 4 c71 -24 74 -28 74 -101 l0 -64 -62 3 -63 3 -3 88 c-1
48 -1 87 1 87 2 0 26 -7 53 -16z m-498 -220 l122 -151 0 -56 0 -57 -130 0
-130 0 0 217 c0 119 4 213 8 208 5 -6 64 -78 130 -161z m322 -64 l0 -80 90 0
90 0 0 -64 c0 -36 4 -76 10 -90 9 -25 13 -26 85 -26 l75 0 -6 -27 c-12 -57
-56 -132 -99 -172 -24 -23 -50 -41 -56 -41 -8 0 -10 24 -8 73 6 157 0 167 -97
167 -60 0 -65 2 -74 26 -6 14 -10 54 -10 89 l0 64 -77 3 -78 3 -3 78 -3 77 81
0 80 0 0 -80z m340 0 l0 -81 -77 3 -78 3 -3 78 -3 77 81 0 80 0 0 -80z m-850
-292 c1 -98 25 -203 75 -320 7 -17 -11 -18 -303 -18 l-309 0 -7 30 c-3 17 -9
105 -12 195 l-7 165 281 0 282 0 0 -52z m310 28 c0 -13 3 -37 6 -54 l6 -31
-113 -3 -114 -3 53 -28 52 -27 1 -93 c1 -156 30 -198 142 -205 50 -3 71 1 107
20 39 20 48 30 64 78 24 67 20 63 44 56 25 -8 36 -102 26 -233 -8 -106 -3
-102 -99 -78 -104 26 -201 81 -274 154 -106 105 -150 209 -166 394 l-7 77 136
0 136 0 0 -24z m850 -22 c0 -98 -45 -294 -68 -294 -4 0 -51 54 -105 120 -90
110 -97 123 -97 163 0 24 3 47 7 50 3 4 64 7 135 7 l128 0 0 -46z m594 -86
c-1 -70 -7 -165 -13 -213 -51 -380 -283 -705 -626 -875 -127 -63 -228 -95
-359 -115 -57 -8 -109 -15 -115 -15 -8 0 -11 93 -11 330 l0 330 23 4 c108 23
141 33 204 62 87 41 178 115 234 189 26 34 52 58 68 61 14 4 70 20 124 36 54
17 101 28 103 25 6 -5 -35 -56 -105 -131 l-46 -48 45 22 c24 12 69 47 100 76
l56 54 68 -36 68 -36 -33 -34 -33 -34 36 0 c34 0 36 2 47 44 6 24 13 50 16 58
4 11 -3 17 -24 21 -19 4 -39 19 -55 43 l-25 37 58 37 c53 34 91 73 91 92 0 4
-17 12 -38 19 -32 9 -52 7 -136 -16 -54 -15 -100 -24 -104 -21 -3 4 14 26 38
51 l43 44 -39 -6 c-50 -7 -51 -9 -59 -64 l-7 -47 29 5 c15 2 75 14 131 25 57
11 106 17 110 14 9 -10 -32 -59 -64 -78 -23 -13 -64 -17 -197 -20 l-169 -4 6
66 c4 36 9 91 12 123 l6 57 272 -2 271 -3 -1 -127z m-1264 92 c17 -17 20 -33
20 -120 0 -99 0 -100 -21 -90 -60 32 -139 155 -139 215 0 25 115 20 140 -5z
m-132 -148 c22 -27 63 -66 91 -87 55 -43 59 -51 36 -99 -33 -68 -129 -89 -178
-38 -37 38 -49 158 -23 227 10 25 21 45 25 45 4 0 26 -22 49 -48z m334 -147
c45 -31 194 -223 182 -235 -13 -12 -153 -58 -202 -66 l-42 -7 0 167 c0 184 0
183 62 141z m-107 -770 l0 -240 -63 3 c-34 2 -115 14 -179 27 -65 13 -119 23
-120 21 -7 -6 156 -65 235 -86 232 -59 463 -47 715 37 16 5 17 -11 15 -278
l-3 -284 -615 0 -615 0 -3 380 -2 381 -28 16 c-74 44 -259 238 -247 258 4 7
160 9 458 8 l452 -3 0 -240z m-5009 -885 c49 -25 79 -49 106 -84 33 -45 55
-93 45 -102 -5 -5 -1297 -10 -1605 -6 l-254 3 7 27 c19 76 127 170 219 191 24
5 332 8 727 8 l686 -2 69 -35z m5724 24 c95 -28 169 -92 205 -177 l15 -36
-178 -4 c-296 -6 -1680 -2 -1687 4 -9 9 21 76 51 116 30 39 101 82 163 99 34
9 217 13 712 13 583 1 672 -1 719 -15z"/>
<path d="M6955 11539 c-64 -22 -146 -73 -184 -113 l-24 -25 70 29 c100 42 177
60 258 60 72 0 82 -4 154 -58 30 -23 31 -23 31 -3 0 46 -32 103 -66 117 -49
21 -168 17 -239 -7z"/>
<path d="M6928 11370 c-42 -8 -118 -40 -118 -49 0 -3 23 -18 50 -32 l50 -27
12 39 c10 35 16 41 57 51 36 9 41 13 25 19 -23 9 -27 9 -76 -1z"/>
<path d="M6765 11110 c-50 -18 -50 -18 -15 -19 63 -1 109 10 103 25 -7 18 -27
17 -88 -6z"/>
<path d="M6803 11016 c-35 -7 -66 -15 -69 -18 -3 -4 6 -14 20 -23 34 -23 82
-13 126 25 34 28 34 29 10 29 -14 -1 -53 -6 -87 -13z"/>
<path d="M8923 7936 c-13 -16 -23 -42 -23 -57 0 -17 10 -39 23 -51 l22 -23 3
37 c2 21 2 57 0 80 l-3 43 -22 -29z"/>
<path d="M9534 7916 c-3 -7 -4 -33 -2 -57 3 -40 6 -44 31 -47 27 -3 27 -3 27
57 0 59 -1 61 -25 61 -14 0 -28 -6 -31 -14z"/>
<path d="M9017 7783 c-27 -26 18 -77 81 -91 51 -12 54 -7 7 12 -31 13 -35 19
-35 50 0 31 -3 36 -23 36 -13 0 -27 -3 -30 -7z"/>
<path d="M8762 7443 c3 -54 5 -58 28 -58 23 0 25 4 28 58 l3 57 -31 0 -31 0 3
-57z"/>
<path d="M8715 6889 c-4 -27 -5 -52 -4 -54 2 -2 16 -6 32 -10 l27 -7 0 61 c0
58 -1 61 -24 61 -21 0 -25 -6 -31 -51z"/>
<path d="M9117 6793 c-4 -3 -7 -30 -7 -60 0 -50 1 -53 25 -53 24 0 25 3 25 60
0 52 -3 60 -18 60 -10 0 -22 -3 -25 -7z"/>
<path d="M3890 7759 c-47 -10 -91 -17 -98 -14 -26 10 -143 25 -152 20 -5 -3 2
-21 15 -40 18 -28 22 -44 18 -75 -3 -23 0 -81 6 -129 12 -83 11 -92 -7 -128
-11 -21 -41 -62 -66 -90 -25 -28 -46 -54 -46 -58 0 -4 44 -5 98 -1 l97 6 -48
-43 c-26 -24 -77 -58 -114 -76 l-66 -33 24 -19 c39 -31 117 -49 206 -49 46 0
83 -4 83 -10 0 -12 -71 -60 -145 -98 -33 -16 -102 -62 -153 -101 -78 -59 -100
-71 -131 -71 -52 0 -101 18 -134 49 -27 24 -29 30 -24 82 6 75 42 146 138 276
153 208 197 337 147 433 -27 52 -89 90 -149 90 -19 0 -58 7 -85 15 -79 24
-111 20 -147 -17 -51 -55 -70 -112 -75 -221 -2 -53 -1 -131 3 -173 l7 -76 21
42 c13 24 60 78 109 122 87 80 118 128 118 186 0 44 13 56 53 48 19 -4 47 -16
61 -27 22 -17 26 -28 26 -72 0 -70 -37 -147 -144 -294 -136 -190 -172 -280
-154 -383 5 -25 16 -56 26 -70 26 -35 89 -68 152 -80 30 -6 55 -12 57 -14 2
-2 0 -19 -4 -37 -8 -29 -17 -36 -67 -56 -32 -12 -61 -24 -63 -26 -2 -3 15 -31
38 -65 55 -80 63 -139 25 -177 -28 -28 -34 -28 -111 -9 l-28 7 5 -72 c10 -143
111 -278 298 -401 52 -34 97 -63 99 -65 2 -2 -6 -17 -18 -34 -29 -40 -37 -86
-21 -117 19 -34 35 -30 50 15 7 21 22 51 34 66 l22 27 45 -68 44 -68 3 47 3
48 51 -38 51 -37 -6 32 c-4 18 -10 47 -14 64 l-6 33 28 -19 c49 -32 95 -58 95
-54 0 2 -7 27 -15 55 -25 83 -56 101 -217 128 -77 12 -126 79 -152 208 -23
111 -23 112 29 72 51 -38 128 -65 189 -65 l40 0 -31 33 c-49 52 -55 71 -54
181 1 92 -5 157 -24 241 l-6 30 22 -30 c12 -16 74 -82 139 -146 l117 -116 -50
-19 c-27 -10 -51 -23 -54 -27 -10 -17 73 -89 142 -123 41 -20 131 -50 215 -70
80 -20 153 -43 163 -52 13 -11 17 -31 17 -79 0 -34 4 -63 8 -63 5 0 23 20 41
45 18 25 36 45 40 45 11 0 46 -40 69 -79 l20 -34 11 39 c6 22 11 51 11 67 0
33 8 34 71 1 l51 -25 -7 23 c-4 13 -20 51 -35 85 -16 34 -26 64 -22 67 3 3 30
6 61 6 l56 1 -37 34 c-51 47 -92 47 -187 -1 -48 -24 -76 -33 -84 -26 -7 5 -56
44 -110 87 l-99 79 53 13 c63 16 111 44 133 78 9 13 16 26 16 28 0 3 -28 10
-62 17 -60 11 -66 15 -149 101 -99 102 -147 128 -279 154 -47 9 -92 18 -100
21 -23 9 45 40 139 64 46 11 100 28 122 36 l39 16 51 -46 c75 -68 178 -133
276 -175 l88 -38 19 -69 c24 -82 25 -84 37 -61 6 9 20 29 33 44 21 24 26 26
52 15 16 -7 42 -33 58 -58 34 -54 40 -49 56 48 8 47 15 66 23 61 7 -4 29 -17
50 -31 22 -13 40 -22 42 -20 9 9 -32 73 -62 96 -18 15 -33 30 -33 35 0 4 28 7
62 7 l61 0 -19 21 c-58 66 -181 64 -229 -3 l-16 -23 -26 30 c-14 17 -70 78
-125 138 -61 66 -94 109 -86 111 7 2 40 9 72 15 108 20 152 61 162 153 l7 58
-67 -35 c-83 -43 -132 -46 -166 -10 -14 15 -20 29 -14 33 5 5 46 39 91 76 46
37 122 109 170 160 74 78 94 94 126 99 73 11 154 67 97 67 -32 0 -110 21 -110
30 0 4 28 26 63 49 l62 41 -67 0 c-38 0 -68 3 -68 6 0 4 16 28 36 55 20 27 33
49 31 49 -3 0 -35 -14 -72 -30 l-67 -30 6 37 c4 21 10 47 13 58 5 18 3 18 -20
-3 -32 -30 -64 -103 -73 -169 -7 -60 -32 -87 -204 -227 l-105 -86 -12 76 c-6
42 -13 77 -15 80 -3 2 -26 -24 -54 -59 -60 -76 -120 -110 -181 -104 -52 5 -88
28 -108 67 -15 29 -14 31 8 54 14 14 41 26 70 30 l47 7 0 45 c0 41 -2 44 -22
39 -13 -3 -53 -11 -90 -19 -80 -16 -83 -11 -44 64 23 46 31 50 139 74 24 6 27
11 27 45 0 39 -1 40 -87 90 -49 28 -97 51 -108 50 -11 0 -58 -9 -105 -20z
m153 -89 c-15 -22 -30 -40 -33 -40 -3 0 -24 18 -45 40 l-39 40 73 0 72 0 -28
-40z"/>
<path d="M4381 7721 c-14 -9 -12 -64 4 -104 6 -14 -3 -21 -41 -39 -27 -12 -69
-27 -94 -35 -45 -13 -44 -13 40 -9 92 4 160 29 180 65 17 32 12 96 -8 114 -20
18 -59 22 -81 8z"/>
<path d="M10350 7807 c0 -43 2 -47 25 -47 13 0 47 5 75 11 l50 11 -22 30 c-20
29 -22 29 -34 13 -7 -10 -15 -23 -17 -29 -3 -6 -21 4 -41 23 l-36 35 0 -47z"/>
<path d="M10526 7794 c-22 -21 -21 -54 2 -54 25 0 42 19 42 47 0 27 -21 30
-44 7z"/>
<path d="M10417 5988 c-40 -54 -40 -56 -5 -75 27 -14 57 -18 158 -18 116 0
125 -1 125 -19 0 -10 -13 -28 -28 -40 -23 -17 -48 -21 -145 -27 -100 -6 -128
-11 -191 -38 -41 -17 -76 -29 -79 -26 -3 2 12 32 32 65 20 34 36 62 36 64 0 1
-16 0 -36 -2 -28 -4 -41 1 -64 23 l-29 28 -7 -52 c-9 -69 -29 -93 -81 -95 -39
-1 -51 5 -142 71 -24 17 -24 17 -13 -4 7 -12 44 -54 82 -93 l70 -72 -17 -31
c-27 -47 -95 -111 -143 -132 -40 -18 -42 -20 -19 -26 40 -10 77 7 142 66 73
67 107 86 205 113 54 15 72 17 72 8 0 -16 -72 -121 -113 -163 l-31 -33 34 10
c47 14 74 42 119 130 57 109 63 113 113 63 l41 -41 -49 -58 -49 -57 35 18 c19
10 60 42 91 72 l57 55 -31 44 c-26 38 -29 47 -17 54 8 5 23 10 32 10 28 0 121
39 147 61 30 25 22 45 -28 71 -27 13 -52 16 -140 11 -82 -4 -110 -2 -124 9
-18 13 -16 15 21 27 22 8 53 24 68 37 l29 23 -52 1 c-47 0 -54 -3 -76 -32z"/>
<path d="M3645 12133 c-72 -48 -127 -97 -172 -152 -24 -29 -42 -55 -40 -57 2
-3 25 4 51 13 l47 18 108 -110 c59 -61 134 -143 166 -184 l59 -74 -27 -48 -27
-48 28 10 c62 24 260 205 243 222 -7 7 -23 5 -50 -5 -36 -14 -41 -14 -68 3
-28 18 -194 198 -276 300 l-37 46 26 47 c14 25 22 46 17 46 -5 0 -26 -12 -48
-27z"/>
<path d="M10089 12087 c-186 -53 -286 -234 -226 -412 38 -112 148 -211 266
-241 81 -20 136 -14 218 26 211 104 244 363 68 529 -95 90 -220 128 -326 98z
m238 -97 c89 -40 108 -144 48 -265 -52 -107 -185 -215 -265 -215 -45 0 -105
34 -130 75 -63 102 36 311 181 386 85 43 108 46 166 19z"/>
<path d="M3242 11767 c-18 -12 -59 -55 -91 -96 l-59 -74 23 -51 c12 -28 55
-117 94 -197 39 -80 71 -148 71 -151 0 -2 -91 19 -202 48 -112 29 -211 53
-220 54 -22 0 -167 -175 -154 -187 1 -2 24 6 51 18 42 18 51 19 73 8 15 -8 94
-80 176 -160 l149 -146 -6 -64 -7 -63 36 34 c42 40 157 181 151 186 -2 2 -27
-4 -55 -13 -50 -16 -55 -16 -86 1 -38 20 -269 226 -262 233 2 2 80 -18 173
-46 159 -48 321 -87 328 -79 2 1 -50 115 -116 252 -66 137 -118 250 -116 252
4 5 236 -182 289 -234 26 -25 46 -48 44 -51 -2 -3 -11 -31 -20 -61 l-15 -55
71 75 c66 70 147 171 169 212 8 14 1 13 -43 -7 -29 -14 -58 -25 -65 -25 -14 0
-258 188 -331 256 l-54 49 21 49 c12 27 20 50 18 52 -2 2 -18 -6 -35 -19z"/>
<path d="M10641 11378 c-26 -14 -51 -38 -62 -58 -25 -46 -24 -116 1 -158 26
-42 99 -76 144 -68 180 34 181 273 1 301 -31 5 -50 1 -84 -17z"/>
<path d="M11134 11090 l1 -64 -160 -109 c-88 -60 -178 -117 -199 -127 -39 -18
-40 -18 -88 6 -26 13 -50 24 -54 24 -18 0 172 -286 235 -353 62 -67 111 -90
174 -84 57 5 95 30 120 78 18 33 18 77 1 144 l-6 26 37 -22 c24 -15 55 -23 86
-23 42 -1 53 3 81 32 29 28 33 39 33 85 0 37 -8 68 -26 103 -32 63 -167 267
-207 314 l-29 34 1 -64z m136 -220 c11 -22 20 -55 20 -75 0 -60 -64 -106 -125
-91 -32 8 -108 83 -99 97 10 17 168 117 177 112 4 -2 16 -22 27 -43z m-219
-147 c43 -99 29 -162 -44 -196 -53 -26 -91 -22 -132 14 -40 35 -52 68 -36 98
13 23 159 130 179 131 7 0 22 -21 33 -47z"/>
<path d="M2422 10688 c-60 -101 -120 -203 -132 -227 l-22 -44 47 28 c36 20 55
26 79 21 33 -7 295 -159 359 -209 l38 -29 -6 -62 -6 -61 26 30 c30 35 267 423
269 440 1 14 -127 130 -132 117 -1 -5 6 -33 18 -61 11 -28 20 -65 20 -82 0
-37 -39 -116 -73 -148 -25 -22 -27 -23 -69 -9 -63 22 -160 86 -151 101 4 7 22
36 41 65 l34 54 49 -4 c27 -1 49 0 49 3 0 16 -79 75 -135 100 -33 15 -61 26
-63 25 -1 -2 7 -24 18 -49 l21 -46 -30 -60 c-17 -33 -34 -62 -39 -64 -8 -5
-145 74 -171 98 -12 11 -10 21 14 62 48 82 76 103 133 103 88 0 91 9 15 51
-37 21 -73 39 -80 39 -6 0 -61 -82 -121 -182z"/>
<path d="M11020 10219 c0 -14 75 -162 104 -205 l26 -39 0 57 0 56 48 7 c26 3
57 9 69 12 19 4 27 -6 65 -81 l43 -86 -52 -52 -52 -52 -28 20 c-51 37 -53 36
-28 -31 31 -83 76 -170 109 -214 l26 -35 0 50 c0 28 7 63 18 81 9 18 91 116
182 219 213 240 204 228 189 255 -11 21 -15 21 -118 15 -58 -3 -189 -11 -290
-16 l-184 -10 -64 29 c-34 17 -63 26 -63 20z m502 -116 c-17 -21 -48 -55 -70
-77 l-40 -39 -32 63 c-17 34 -29 65 -26 68 6 5 106 17 169 21 l29 1 -30 -37z"/>
<path d="M2212 10154 c-28 -14 -71 -47 -93 -72 -41 -46 -152 -262 -197 -382
-11 -30 -24 -64 -28 -74 -6 -15 3 -12 41 14 46 32 50 33 91 22 63 -17 355
-151 381 -174 17 -16 23 -34 25 -75 l3 -55 42 73 c52 93 106 223 134 325 40
145 10 256 -93 349 -87 78 -208 98 -306 49z m179 -156 c148 -68 206 -190 147
-308 -32 -63 -52 -63 -201 1 -140 60 -297 136 -297 145 0 14 53 111 73 133 47
51 77 63 153 58 47 -2 88 -12 125 -29z"/>
<path d="M3777 10106 c-48 -13 -90 -26 -94 -29 -5 -6 10 -13 63 -31 17 -6 26
-160 18 -302 l-7 -126 -34 -21 c-52 -30 -27 -37 132 -37 l140 0 -42 36 -43 36
0 249 0 249 -22 -1 c-13 0 -63 -11 -111 -23z"/>
<path d="M4130 10108 c0 -7 -7 -60 -15 -118 -22 -162 -26 -150 49 -150 54 0
69 -4 95 -25 53 -45 63 -123 23 -183 -20 -30 -56 -25 -122 18 -26 17 -49 30
-53 30 -3 0 -16 -20 -30 -44 l-25 -45 46 -15 c61 -21 147 -20 197 3 122 55
179 178 123 261 -44 64 -69 75 -172 75 l-92 0 7 40 c5 22 8 46 9 53 0 9 30 12
115 12 63 0 115 3 115 8 1 4 5 26 9 50 l8 42 -143 0 c-108 0 -144 -3 -144 -12z"/>
<path d="M9386 10063 c-4 -32 -9 -71 -13 -88 -5 -29 -5 -29 13 -14 46 40 88
52 181 53 50 1 94 -2 98 -6 7 -7 -59 -124 -182 -320 -40 -65 -73 -120 -73
-123 0 -3 29 -5 65 -5 64 0 66 1 80 33 35 76 227 503 232 515 4 9 -39 12 -195
12 l-200 0 -6 -57z"/>
<path d="M9872 10028 c-6 -51 -15 -114 -18 -140 l-7 -48 73 0 c67 0 74 -2 100
-30 68 -72 35 -219 -43 -194 -12 4 -41 20 -64 35 -51 35 -56 36 -77 4 -26 -40
-20 -64 19 -81 82 -34 203 -8 273 59 46 43 62 78 62 129 0 57 -28 108 -76 136
-34 20 -49 22 -121 19 -92 -4 -88 -6 -77 66 l7 37 113 0 c113 0 114 0 119 25
3 14 7 36 10 50 l5 25 -143 0 -144 0 -11 -92z"/>
<path d="M11845 9766 c-114 -36 -118 -42 -49 -57 32 -7 67 -16 77 -21 16 -8
67 -96 67 -117 0 -9 -387 -157 -439 -167 -22 -5 -36 1 -62 23 -72 60 -71 62
-30 -60 42 -125 104 -261 107 -237 2 8 6 37 9 64 l7 48 71 33 c72 33 377 145
394 145 10 0 33 -87 33 -123 0 -12 -18 -44 -40 -72 -22 -27 -40 -53 -40 -57 0
-8 62 15 147 52 l42 18 -34 64 c-43 80 -154 385 -162 444 -3 24 -11 44 -17 44
-6 -1 -43 -11 -81 -24z"/>
<path d="M5709 9507 c-75 -50 -119 -194 -119 -389 0 -121 18 -215 48 -258 26
-36 84 -62 119 -54 50 13 154 129 201 226 23 47 42 91 42 97 0 6 -33 10 -89 9
-99 -1 -136 13 -174 65 -32 42 -34 134 -7 235 12 46 20 85 18 88 -3 2 -20 -6
-39 -19z"/>
<path d="M2366 9251 c-21 -22 -51 -44 -65 -50 -14 -5 -132 -19 -261 -31 -348
-31 -330 -28 -330 -60 0 -22 28 -50 172 -171 264 -221 275 -232 295 -295 9
-30 19 -54 23 -54 10 0 80 221 80 254 0 6 -17 -7 -39 -28 l-39 -38 -56 38
c-31 20 -56 43 -56 50 0 7 11 49 25 92 l25 79 67 6 c38 3 71 3 75 0 5 -2 8
-16 8 -31 1 -97 55 -6 97 160 13 55 23 104 21 109 -2 5 -21 -8 -42 -30z m-288
-233 c-3 -7 -13 -38 -23 -68 -10 -30 -19 -56 -20 -58 -2 -2 -40 25 -84 60
l-81 63 52 6 c102 11 160 10 156 -3z"/>
<path d="M7748 9021 c-26 -10 -59 -29 -75 -41 l-28 -23 25 6 c14 4 59 10 101
13 106 9 140 -8 176 -87 l27 -59 46 0 c51 0 70 13 70 47 0 52 -56 120 -122
147 -51 22 -161 20 -220 -3z"/>
<path d="M11560 8972 c0 -40 45 -210 59 -225 5 -4 14 13 21 38 l13 46 71 -3
71 -3 17 -62 c34 -127 36 -116 -27 -158 l-57 -37 -37 30 -37 30 7 -52 c7 -54
56 -241 68 -264 4 -8 16 11 32 50 l24 63 232 175 c127 96 235 178 239 182 4 5
-1 16 -10 27 -19 20 -94 37 -306 66 -63 9 -155 23 -204 32 -84 15 -92 18 -133
60 l-43 45 0 -40z m460 -161 l44 -6 -87 -62 -86 -62 -11 42 c-6 23 -15 57 -20
75 l-9 33 62 -7 c34 -4 82 -10 107 -13z"/>
<path d="M7684 8623 l1 -171 -33 -47 c-19 -26 -42 -77 -54 -113 -23 -76 -45
-100 -126 -141 -57 -29 -61 -33 -80 -91 -19 -55 -19 -61 -4 -56 9 3 71 12 137
21 155 21 213 50 308 152 88 97 87 125 -3 258 -46 67 -72 125 -110 245 l-37
115 1 -172z"/>
<path d="M1567 8542 c-54 -136 -66 -295 -28 -393 27 -72 89 -142 155 -177 45
-24 62 -27 146 -27 114 0 153 17 223 95 70 78 107 198 107 353 l0 68 -84 40
c-46 21 -87 39 -90 39 -15 0 -2 -22 49 -86 30 -38 60 -87 66 -108 25 -93 -47
-200 -155 -231 -118 -34 -261 -1 -331 77 -45 49 -55 75 -55 144 0 96 44 152
143 184 33 10 57 34 46 44 -2 2 -43 6 -90 10 l-86 7 -16 -39z"/>
<path d="M6310 8555 c-8 -2 -32 -6 -52 -10 -59 -9 -36 -30 50 -47 43 -9 101
-26 130 -38 l52 -22 0 -77 c0 -188 67 -296 207 -337 29 -8 75 -33 101 -54 87
-68 133 -81 221 -64 l31 6 -50 55 c-31 34 -57 75 -71 113 l-21 59 -67 20
c-134 41 -190 108 -200 241 -6 74 -6 74 -46 97 -22 13 -61 29 -87 37 -48 15
-171 28 -198 21z"/>
<path d="M12279 8430 c-33 -63 -38 -67 -174 -152 -342 -215 -357 -226 -349
-250 3 -13 7 -24 9 -26 1 -1 98 -27 216 -57 307 -79 334 -89 398 -149 l54 -51
-7 70 c-4 39 -15 104 -24 145 l-18 75 -18 -47 c-16 -40 -23 -48 -45 -48 -33 0
-344 61 -353 69 -8 7 310 211 327 211 6 0 21 -17 35 -37 l25 -37 3 43 c3 42
-20 213 -36 276 -8 30 -8 30 -43 -35z"/>
<path d="M7563 7899 c-114 -12 -253 -40 -440 -89 l-160 -42 -12 -110 c-27
-248 -33 -460 -27 -903 9 -628 26 -886 77 -1135 54 -263 165 -508 330 -730 81
-108 243 -269 345 -341 132 -94 119 -92 171 -34 92 100 179 247 223 375 52
152 133 578 164 860 25 224 46 565 35 552 -9 -10 -80 -204 -119 -327 -58 -183
-145 -557 -166 -712 -3 -29 -11 -53 -17 -53 -14 0 -2 302 17 424 28 174 84
407 146 602 124 391 123 425 -35 903 -76 229 -79 249 -42 280 9 7 33 11 54 9
35 -3 41 -8 68 -58 l30 -55 3 43 c4 57 -15 146 -37 174 -19 22 -19 22 -60 4
-50 -23 -123 -93 -146 -142 -30 -63 -31 -108 -2 -172 29 -66 42 -134 30 -156
-7 -12 -21 -10 -95 14 -89 28 -104 27 -68 -5 13 -12 21 -37 26 -78 6 -55 8
-59 21 -41 8 10 20 32 25 47 9 24 14 28 37 22 34 -9 32 -5 47 -82 20 -104 17
-126 -32 -251 -37 -93 -49 -136 -56 -212 -11 -109 -22 -125 -96 -136 -88 -13
-180 35 -214 114 -28 62 -21 194 16 307 14 44 26 85 26 90 0 6 -22 23 -50 38
-60 34 -90 70 -90 109 0 17 12 74 26 126 31 113 29 168 -10 255 -58 131 -130
198 -216 200 -45 2 -55 -2 -76 -26 -19 -23 -24 -39 -24 -85 0 -49 39 -225 53
-239 3 -2 14 28 26 66 12 39 32 82 44 97 l23 27 37 -33 c70 -61 67 -95 -32
-377 -133 -381 -126 -485 59 -888 128 -278 189 -532 205 -850 l5 -110 -32 95
c-18 52 -67 203 -110 335 -67 206 -95 275 -198 485 -144 295 -162 354 -164
530 0 130 8 182 51 336 l26 91 -46 114 c-56 139 -71 214 -65 321 5 104 35 170
97 213 40 28 49 30 134 30 l92 0 56 56 c61 62 94 75 167 64 36 -5 56 -17 101
-60 l56 -53 49 43 50 43 -34 42 c-18 23 -44 46 -57 51 -28 11 -105 10 -220 -2z
m-164 -982 c21 -26 40 -135 50 -292 6 -101 16 -178 27 -209 25 -72 85 -126
205 -187 l103 -51 77 80 c115 118 134 164 169 388 10 71 26 153 35 182 14 45
19 53 38 50 13 -2 29 -17 39 -38 27 -54 23 -151 -12 -291 -53 -209 -58 -218
-197 -362 -199 -205 -218 -245 -216 -447 2 -150 0 -150 -48 -9 -38 115 -37
179 8 286 l30 72 -102 50 c-168 84 -241 172 -264 321 -6 36 -11 135 -12 221 0
141 2 161 21 203 24 49 31 54 49 33z m525 -883 c24 -49 32 -171 17 -244 -7
-30 -23 -82 -36 -115 l-24 -60 5 105 c7 114 -5 202 -34 261 -18 36 -18 36 7
68 13 17 29 30 35 28 6 -2 20 -21 30 -43z"/>
<path d="M2022 7786 c-18 -25 -48 -54 -65 -63 -18 -9 -129 -47 -247 -86 -118
-38 -236 -76 -262 -85 -27 -9 -48 -21 -48 -27 0 -25 65 -67 260 -167 280 -144
276 -142 302 -199 13 -27 28 -49 35 -49 16 0 25 84 21 190 l-3 85 -23 -42
c-12 -24 -26 -43 -30 -43 -5 0 -36 9 -70 21 l-63 21 7 92 c4 50 9 94 13 97 7
7 113 39 129 39 6 0 17 -19 25 -42 l15 -43 12 30 c18 46 31 155 28 241 l-3 76
-33 -46z m-238 -343 c-4 -38 -8 -70 -11 -72 -2 -3 -44 15 -94 40 l-91 44 83
27 c124 39 121 41 113 -39z"/>
<path d="M8095 7785 c-45 -14 -49 -31 -21 -96 14 -35 18 -37 75 -43 34 -4 75
-12 91 -18 17 -6 33 -8 36 -5 17 17 -103 178 -130 176 -6 -1 -29 -7 -51 -14z"/>
<path d="M11820 7697 c0 -97 11 -197 21 -197 5 0 18 18 29 40 11 22 24 40 28
40 13 -1 124 -29 127 -32 1 -2 4 -46 6 -98 l4 -94 -63 -25 -63 -24 -35 33 -34
34 5 -89 c9 -146 14 -192 26 -222 l11 -28 16 42 c10 22 26 51 37 63 11 13 139
81 283 151 170 83 262 133 260 141 -9 28 -75 57 -304 137 -131 46 -247 87
-257 93 -9 5 -35 32 -57 59 l-40 51 0 -75z m370 -192 c40 -14 75 -27 78 -30 3
-3 -34 -23 -83 -45 -48 -23 -88 -40 -90 -38 -1 2 -5 33 -9 71 -8 80 -8 80 104
42z"/>
<path d="M7563 7673 l-61 -36 38 -51 c21 -28 59 -89 85 -136 25 -47 50 -89 55
-94 15 -15 33 76 27 139 -5 64 -36 156 -65 192 l-17 23 -62 -37z"/>
<path d="M7905 7681 c-35 -15 -54 -45 -69 -111 -17 -74 -32 -210 -23 -210 13
0 50 47 74 95 14 28 38 65 52 84 31 40 37 125 11 141 -18 11 -19 11 -45 1z"/>
<path d="M8282 7151 c-7 -19 -12 -49 -12 -68 0 -38 19 -121 29 -127 10 -6 12
111 3 174 l-8 55 -12 -34z"/>
<path d="M6647 6906 c-25 -814 -30 -1143 -17 -1215 11 -66 14 -73 26 -57 30
42 37 130 36 431 0 165 3 329 7 365 l7 65 12 -40 c25 -80 35 -359 36 -995 1
-470 -3 -683 -12 -785 -8 -77 -15 -141 -17 -143 -2 -2 -83 3 -182 12 -126 10
-194 20 -230 35 -67 26 -168 44 -205 36 l-30 -7 61 -35 c35 -19 61 -36 59 -38
-2 -2 -190 -51 -418 -110 -228 -58 -694 -178 -1034 -267 -689 -178 -617 -167
-717 -107 l-35 21 -417 -174 c-229 -95 -409 -174 -399 -176 10 -1 186 13 392
33 206 19 407 38 447 42 l72 6 24 71 24 71 604 161 c332 89 811 217 1064 284
l459 122 96 -42 c79 -35 112 -43 195 -51 160 -15 198 -34 175 -88 -26 -65
-112 -115 -216 -127 -92 -10 -96 -20 -13 -34 65 -11 82 -11 139 4 91 23 272
113 352 173 l67 51 128 16 c204 27 355 69 378 106 4 6 -20 34 -52 62 -293 260
-455 498 -564 829 -94 286 -125 576 -136 1266 l-6 413 -31 4 c-17 3 -52 7 -77
9 l-46 4 -6 -201z"/>
<path d="M7660 7062 l-115 -47 56 -3 c54 -3 57 -4 80 -45 l23 -42 13 58 c8 33
25 74 39 93 15 19 25 34 23 34 -2 -1 -56 -22 -119 -48z"/>
<path d="M1605 6911 c-53 -33 -69 -58 -72 -119 -3 -44 0 -64 16 -89 43 -68
117 -89 194 -55 149 66 96 282 -68 282 -22 0 -53 -8 -70 -19z"/>
<path d="M12150 6918 c-107 -30 -145 -166 -69 -244 77 -79 205 -59 250 39 24
54 24 71 -2 123 -33 69 -107 103 -179 82z"/>
<path d="M7750 6871 l-25 -7 25 -7 c14 -4 49 -7 79 -7 46 0 52 2 41 15 -13 16
-75 19 -120 6z"/>
<path d="M7758 6763 c-29 -34 -39 -63 -46 -143 l-8 -80 66 0 67 0 12 84 c6 46
8 92 5 102 -12 32 -36 54 -59 54 -12 0 -29 -8 -37 -17z"/>
<path d="M1985 6406 c-4 -25 -15 -52 -24 -60 -16 -14 -283 -65 -419 -79 l-53
-6 -37 52 c-34 47 -37 50 -40 27 -3 -26 23 -238 29 -244 2 -2 92 -29 199 -61
107 -32 201 -61 208 -65 9 -4 -51 -49 -172 -128 -102 -67 -186 -128 -186 -134
0 -15 17 -138 25 -185 8 -46 33 -43 41 6 3 21 9 43 13 49 10 17 122 31 304 38
l168 7 45 -44 46 -44 -7 85 c-7 91 -30 190 -44 190 -5 0 -12 -16 -15 -36 -10
-52 -35 -70 -112 -83 -71 -12 -297 -32 -302 -27 -1 2 59 41 135 87 76 45 176
107 223 137 l85 55 -43 18 c-42 18 -184 63 -390 125 -51 15 -89 30 -85 34 10
9 96 25 237 45 165 23 165 23 206 -34 19 -27 36 -48 37 -47 2 1 -2 52 -7 112
-10 113 -36 240 -50 249 -5 3 -12 -15 -15 -39z"/>
<path d="M11850 6430 c-10 -19 -38 -236 -62 -479 -3 -34 -2 -34 62 -56 143
-48 151 -42 60 42 -57 53 -60 58 -60 104 0 27 7 67 17 90 l16 42 116 -6 c141
-7 341 -35 358 -49 7 -6 18 -29 25 -52 6 -22 15 -45 18 -49 12 -13 29 76 43
215 12 125 11 138 -17 138 -2 0 -11 -18 -21 -39 -10 -22 -23 -42 -29 -44 -37
-13 -443 36 -470 57 -8 6 -21 33 -29 61 -14 48 -14 49 -27 25z"/>
<path d="M11732 5599 c-21 -64 -65 -289 -58 -296 2 -2 18 14 35 36 18 22 40
42 50 46 19 6 170 -21 344 -62 118 -27 129 -35 142 -108 l8 -40 20 44 c18 41
46 161 62 271 l7 45 -45 -44 -45 -44 -99 18 c-140 25 -344 74 -360 86 -7 6
-15 27 -19 48 -12 67 -20 67 -42 0z"/>
<path d="M1610 5123 c16 -59 35 -126 43 -148 l14 -40 18 64 c18 63 19 64 79
92 83 39 207 69 293 72 58 2 76 -2 100 -19 42 -31 75 -101 69 -148 -6 -54 -32
-84 -102 -122 -55 -31 -284 -104 -323 -104 -10 0 -39 18 -63 40 l-46 40 25
-98 c34 -138 75 -260 82 -242 3 8 12 35 21 60 17 50 2 43 256 123 198 62 241
109 232 256 -10 167 -108 280 -244 281 -28 0 -113 -16 -190 -35 -177 -45 -194
-45 -249 1 l-44 35 29 -108z"/>
<path d="M11592 4993 c-11 -21 -41 -103 -67 -183 -69 -211 -72 -298 -14 -365
62 -71 143 -70 219 1 l48 45 16 -55 c37 -125 166 -140 236 -29 24 38 126 324
144 407 l7 28 -42 -36 c-24 -20 -51 -36 -61 -36 -26 0 -343 106 -398 133 -42
21 -45 25 -50 69 -8 63 -15 67 -38 21z m122 -258 c114 -35 111 -32 73 -95 -56
-94 -124 -121 -193 -75 -59 38 -76 126 -33 171 28 30 53 30 153 -1z m329 -112
c13 -4 16 -11 11 -27 -21 -68 -68 -116 -113 -116 -37 0 -89 35 -97 66 -7 26 1
117 11 133 3 5 42 -4 88 -21 45 -17 90 -33 100 -35z"/>
<path d="M2425 4466 c-6 -45 -13 -61 -32 -73 -32 -21 -281 -125 -356 -149
l-57 -18 -45 32 c-25 18 -47 32 -50 32 -2 0 11 -45 30 -100 35 -104 76 -189
104 -214 15 -13 16 -10 13 38 l-4 53 84 40 c102 50 304 131 344 139 24 4 37
-1 73 -32 l43 -38 -7 35 c-10 50 -82 228 -109 273 l-24 38 -7 -56z"/>
<path d="M11169 3937 c-121 -240 -124 -246 -104 -261 63 -48 126 -89 131 -84
3 3 -9 32 -26 64 -25 46 -31 67 -27 97 6 41 63 146 85 154 12 5 212 -75 212
-84 0 -13 -74 -135 -84 -138 -6 -2 -31 -7 -56 -12 l-45 -8 102 -53 c56 -28
104 -52 107 -52 3 0 -3 24 -13 53 -19 55 -16 80 23 155 l16 31 87 -46 c49 -25
92 -49 97 -53 11 -10 -61 -146 -82 -156 -10 -4 -42 -10 -72 -13 -30 -3 -55
-10 -54 -16 0 -5 25 -22 55 -36 101 -49 83 -64 197 168 55 115 106 221 112
236 11 31 8 31 -47 -9 -17 -13 -38 -24 -46 -24 -22 0 -399 190 -413 208 -8 9
-14 33 -14 52 -3 93 -13 81 -141 -173z"/>
<path d="M5750 3765 l0 -185 -1280 -2 -1280 -3 86 -130 c256 -384 597 -775
919 -1053 592 -510 1230 -832 1956 -986 54 -12 103 -32 171 -71 232 -133 462
-186 709 -164 184 16 331 63 509 164 76 43 115 58 195 75 691 147 1313 456
1890 939 120 100 471 451 576 576 159 189 241 297 382 505 l98 145 -1286 3
-1285 2 0 185 0 185 -1180 0 -1180 0 0 -185z m2308 -737 l-3 -873 -27 -98
c-102 -370 -379 -667 -736 -788 -343 -117 -726 -59 -1025 155 -75 53 -190 168
-252 251 -53 70 -135 233 -164 324 -51 157 -51 166 -51 1062 l0 839 1130 0
1131 0 -3 -872z"/>
<path d="M6372 3639 c-23 -17 -42 -32 -42 -33 0 -2 31 -43 70 -92 38 -49 70
-93 69 -99 0 -5 -19 -24 -43 -42 l-44 -32 -73 94 c-79 102 -74 101 -137 47
l-33 -28 36 -44 35 -45 -42 -37 c-24 -21 -46 -38 -49 -38 -3 0 -20 20 -38 45
-18 25 -34 45 -37 45 -15 0 -93 -67 -89 -76 5 -16 135 -184 142 -184 3 0 46
32 96 72 l90 71 38 -44 c44 -52 47 -46 -70 -134 -44 -33 -80 -62 -81 -65 0 -3
17 -25 38 -49 l38 -44 189 146 c104 81 193 143 197 139 45 -46 215 -279 209
-287 -5 -5 -88 -113 -186 -240 -98 -126 -180 -232 -181 -234 -2 -2 -30 20 -61
51 -41 38 -72 58 -106 67 -119 34 -238 -29 -272 -141 -27 -91 -14 -181 41
-290 13 -26 24 -51 24 -56 0 -4 -20 -13 -45 -20 -35 -9 -46 -17 -51 -37 -11
-45 18 -65 96 -65 l68 0 7 -47 c8 -61 29 -93 59 -93 32 0 44 17 48 70 2 28 7
44 15 43 149 -29 233 -27 310 7 91 40 133 103 133 200 0 94 -54 174 -146 218
-19 8 -34 20 -34 25 0 16 345 456 355 453 5 -1 90 -105 187 -229 l178 -227
-40 -20 c-100 -51 -152 -126 -151 -221 0 -161 152 -255 355 -220 36 6 72 14
79 17 10 4 16 -8 21 -42 3 -26 11 -53 17 -60 15 -18 53 -18 68 -1 8 11 31 100
31 123 0 2 27 4 61 4 64 0 93 10 103 35 10 26 -12 54 -54 71 l-40 16 24 42
c59 103 76 231 43 318 -35 90 -135 148 -232 135 -61 -9 -96 -29 -150 -84 -28
-30 -48 -44 -54 -38 -54 57 -369 480 -364 489 12 20 204 266 212 270 3 3 67
-43 141 -100 74 -58 159 -124 188 -147 l54 -41 34 40 c18 21 33 44 34 51 0 9
-53 53 -179 149 -5 4 62 93 70 94 3 0 46 -31 95 -70 49 -38 91 -70 94 -70 3 0
38 43 78 94 l72 95 -47 36 -48 36 -21 -25 c-12 -14 -29 -35 -38 -47 l-15 -22
-45 34 c-25 19 -46 37 -46 40 0 3 15 26 34 50 19 23 33 46 31 49 -2 3 -23 20
-48 38 l-45 32 -73 -95 -73 -94 -44 32 c-24 17 -45 34 -47 37 -2 3 30 47 71
99 l73 93 -41 35 c-34 28 -43 32 -53 21 -7 -7 -119 -150 -249 -318 -131 -168
-241 -306 -245 -308 -6 -2 -365 451 -496 625 -8 11 -19 8 -53 -18z m-56 -1188
c17 -11 52 -46 78 -79 40 -53 54 -63 116 -87 81 -31 119 -71 127 -134 15 -108
-103 -154 -295 -115 -42 8 -84 17 -93 20 -21 6 -96 165 -111 236 -9 44 -9 65
1 98 22 72 109 103 177 61z m1356 -10 c31 -28 33 -33 33 -98 0 -60 -6 -80 -50
-175 l-50 -107 -70 -16 c-112 -27 -198 -30 -249 -11 -57 22 -77 46 -83 98 -7
66 24 104 124 153 62 31 90 52 121 90 65 83 81 93 149 94 34 1 50 -5 75 -28z"/>
<path d="M2440 3867 c-62 -17 -112 -50 -155 -99 -47 -55 -58 -96 -53 -188 4
-66 11 -92 46 -165 61 -126 146 -274 181 -315 l30 -35 -5 35 c-3 19 -7 45 -10
57 -3 18 7 30 53 61 62 42 323 187 352 197 10 3 43 -8 75 -25 l58 -30 -67 127
c-114 216 -201 325 -294 366 -56 24 -152 31 -211 14z m258 -133 c45 -18 97
-67 112 -105 23 -54 9 -70 -122 -146 -131 -76 -281 -153 -298 -153 -19 0 -62
103 -67 161 -5 50 -2 64 21 102 67 116 245 187 354 141z"/>
<path d="M10870 3393 c-69 -78 -170 -237 -158 -249 2 -2 24 10 48 26 50 33 45
34 153 -37 37 -25 65 -49 61 -54 -18 -30 -67 -39 -188 -38 -107 2 -128 -1
-157 -17 -31 -18 -129 -128 -129 -144 0 -4 30 -1 68 6 62 12 170 18 270 15
l42 -1 0 -64 c0 -74 24 -118 80 -147 74 -40 148 -12 227 86 57 71 213 303 213
317 0 5 -21 -2 -46 -17 -40 -23 -50 -26 -72 -16 -72 33 -369 246 -377 271 -3
10 -1 37 4 61 5 24 8 45 7 47 -2 1 -23 -19 -46 -45z m258 -411 c50 -36 92 -71
92 -77 0 -7 -20 -31 -45 -54 -36 -33 -52 -41 -83 -41 -81 0 -151 81 -132 150
15 52 48 102 63 94 6 -4 54 -36 105 -72z"/>
<path d="M3115 3183 c3 -18 7 -46 10 -61 5 -26 -2 -35 -67 -88 -80 -65 -282
-212 -304 -221 -7 -2 -39 7 -70 21 l-56 26 24 -40 c55 -93 174 -249 188 -247
15 3 15 10 4 72 -2 17 -1 35 3 41 13 17 285 218 335 247 l48 28 39 -23 c27
-16 43 -20 50 -13 12 12 -92 165 -165 243 l-45 47 6 -32z"/>
<path d="M3348 2690 c-91 -48 -109 -137 -59 -293 38 -119 39 -141 5 -172 -38
-35 -92 -34 -127 3 -36 37 -42 77 -23 151 9 35 16 65 16 67 0 22 -75 -38 -111
-87 l-20 -29 40 -58 c79 -117 172 -173 258 -157 60 11 103 43 125 93 22 50 20
95 -12 187 -10 30 -22 74 -25 98 -20 135 128 176 191 54 17 -31 16 -84 -3
-207 -6 -42 -5 -44 11 -30 10 8 38 40 63 72 42 56 44 60 33 93 -6 19 -29 61
-51 94 -80 120 -214 172 -311 121z"/>
<path d="M10190 2530 c-67 -67 -125 -131 -130 -141 -11 -19 -1 -18 78 11 27
10 36 9 57 -4 35 -23 346 -319 343 -326 -2 -3 -22 -23 -46 -45 -46 -41 -60
-44 -152 -31 l-55 7 70 -65 c39 -36 75 -66 80 -66 6 0 20 18 32 39 26 46 310
340 347 360 14 8 26 19 26 24 0 5 -32 41 -71 81 -39 39 -68 62 -64 51 3 -11 9
-49 12 -85 5 -63 4 -66 -32 -113 l-37 -48 -96 90 c-123 113 -262 256 -262 268
0 5 7 32 15 58 8 27 12 51 10 54 -3 2 -59 -51 -125 -119z"/>
<path d="M3882 2246 c-48 -39 -87 -84 -79 -93 3 -3 27 2 53 11 26 9 61 16 76
16 36 0 108 -48 144 -96 l27 -35 -36 -52 c-20 -29 -52 -70 -71 -92 l-34 -40
-56 56 c-53 52 -56 59 -56 105 l-1 49 -46 -50 c-54 -59 -83 -103 -83 -128 0
-16 3 -16 39 5 l38 22 66 -49 66 -48 -30 -38 c-17 -21 -49 -60 -73 -85 l-42
-47 -68 64 -68 64 12 63 c7 34 10 65 7 68 -7 7 -77 -66 -99 -103 l-16 -28 90
-75 c155 -129 282 -231 301 -241 16 -9 16 -6 -2 42 -14 37 -17 57 -11 70 31
56 276 347 301 354 9 3 27 2 40 -3 13 -5 38 -12 54 -16 29 -7 29 -6 -20 44
-27 29 -118 108 -202 176 -84 69 -155 129 -158 134 -9 15 -17 12 -63 -24z"/>
<path d="M9847 2188 c-54 -29 -147 -116 -147 -137 0 -6 17 -4 42 5 23 8 45 11
48 7 17 -20 52 -125 44 -132 -5 -4 -39 -31 -76 -60 l-67 -52 -61 41 c-33 22
-60 43 -60 46 0 3 9 19 20 34 18 25 18 29 4 34 -19 7 -18 7 -114 -65 -80 -61
-147 -125 -138 -134 3 -3 27 0 54 6 60 14 58 15 366 -163 236 -136 255 -141
244 -59 -3 25 -31 138 -62 251 -63 231 -75 315 -51 373 9 20 15 37 14 37 -1 0
-28 -15 -60 -32z m47 -399 c15 -50 25 -93 23 -95 -7 -7 -167 90 -164 99 3 9
98 86 108 86 3 1 18 -40 33 -90z"/>
<path d="M4444 1825 c9 -14 23 -36 32 -50 21 -32 16 -103 -31 -420 -18 -126
-32 -231 -30 -233 2 -2 20 1 42 7 24 7 118 69 243 162 113 83 219 158 237 165
18 8 56 14 85 14 l53 1 -35 29 c-38 33 -184 110 -207 110 -9 0 -3 -14 19 -41
l33 -41 -55 -49 -55 -48 -45 26 c-121 70 -119 69 -113 110 3 21 11 52 19 70
11 28 18 32 56 35 l43 3 -85 56 c-84 56 -146 90 -197 110 -26 9 -26 9 -9 -16z
m227 -397 c33 -18 59 -35 59 -38 -1 -7 -154 -129 -158 -126 -3 3 13 115 24
169 3 15 8 27 11 27 3 0 32 -15 64 -32z"/>
<path d="M8983 1595 c-71 -36 -144 -79 -163 -96 l-35 -30 60 5 60 6 37 -57
c31 -48 208 -378 208 -388 0 -6 -101 -45 -122 -47 -13 -1 -49 15 -80 35 l-58
37 11 -27 c6 -16 27 -58 47 -95 32 -59 38 -66 53 -55 75 55 123 84 254 154 83
44 168 86 190 92 22 7 46 14 52 16 15 5 -12 75 -55 142 l-27 43 -10 -72 c-10
-71 -11 -73 -60 -110 -27 -21 -53 -38 -56 -38 -8 0 -184 323 -212 390 -16 38
-19 55 -11 68 6 9 20 34 33 55 12 20 20 37 17 37 -3 0 -63 -29 -133 -65z"/>
<path d="M5160 1407 c32 -57 84 -208 95 -273 l6 -42 -37 -7 c-68 -12 -110 -41
-134 -90 -45 -93 -5 -165 125 -226 74 -35 335 -129 357 -129 5 0 -3 17 -19 38
-17 20 -32 45 -36 54 -7 19 81 273 133 387 32 68 34 71 69 72 20 0 45 4 55 8
28 11 -74 52 -312 127 -18 5 0 -25 36 -59 27 -26 29 -32 21 -67 -14 -61 -49
-150 -60 -150 -6 0 -21 11 -34 26 -22 24 -28 42 -56 178 -21 100 -66 146 -179
184 l-59 20 29 -51z m281 -394 c13 -13 -71 -243 -89 -243 -19 0 -73 29 -99 52
-47 43 -37 136 19 183 30 25 38 27 96 22 35 -3 68 -9 73 -14z"/>
<path d="M8305 1296 c-55 -18 -122 -44 -150 -58 l-50 -26 40 -7 c22 -3 50 -8
61 -10 17 -4 30 -28 63 -117 55 -154 101 -301 101 -326 0 -12 -16 -37 -37 -57
-20 -19 -34 -38 -30 -41 7 -7 93 16 225 62 114 40 131 61 55 66 l-48 3 -38 88
c-40 94 -103 292 -113 355 -5 35 -3 38 35 62 27 16 36 27 28 32 -19 12 -35 9
-142 -26z"/>
<path d="M7555 1123 c-108 -39 -160 -101 -160 -193 0 -104 58 -157 211 -194
120 -29 161 -67 143 -131 -12 -40 -44 -65 -86 -65 -46 0 -68 13 -130 73 l-53
51 1 -29 c0 -17 8 -57 18 -90 l16 -60 82 1 c45 1 102 7 126 14 119 33 187 158
140 257 -22 47 -72 77 -169 103 -91 24 -135 47 -160 84 -33 51 5 125 74 143
43 10 98 -15 172 -82 40 -36 75 -63 78 -60 10 9 -51 174 -67 181 -9 3 -54 8
-101 10 -65 4 -97 0 -135 -13z"/>
<path d="M6219 1089 l54 -43 -6 -83 c-3 -46 -8 -87 -11 -92 -3 -5 -23 -3 -43
5 -21 7 -70 13 -109 14 -168 1 -266 -121 -205 -257 22 -48 45 -65 124 -92 53
-19 234 -52 357 -67 l55 -6 -37 39 c-47 48 -48 65 -14 265 41 240 43 245 78
257 17 6 39 11 49 11 12 0 19 7 19 18 0 16 -20 21 -147 41 -82 12 -164 25
-183 28 l-35 6 54 -44z m17 -272 c7 -7 -21 -194 -36 -232 -10 -25 -14 -27 -50
-22 -82 11 -129 77 -111 157 19 83 57 112 138 107 29 -2 56 -6 59 -10z"/>
<path d="M6865 862 c-65 -41 -93 -107 -74 -175 29 -104 133 -144 227 -87 86
52 86 189 0 253 -38 29 -115 33 -153 9z"/>
</g>
</svg>
